<svg width="56" height="54" viewBox="0 0 56 54" fill="none" xmlns="http://www.w3.org/2000/svg">
<g clip-path="url(#clip0_845_23)">
<path d="M46.0829 0H9.91706C4.44002 0 0 4.39122 0 9.80806V44.1919C0 49.6088 4.44002 54 9.91706 54H46.0829C51.56 54 56 49.6088 56 44.1919V9.80806C56 4.39122 51.56 0 46.0829 0Z" fill="#470137"/>
<path d="M29.4386 14.2012L22.4513 25.6067L29.927 37.7189C29.9751 37.8037 29.9884 37.9036 29.9642 37.9978C29.9391 38.0842 29.8549 38.0302 29.7019 38.054H24.3691C23.9932 38.054 23.7309 38.041 23.5801 37.7935C23.0796 36.8273 22.5788 35.8676 22.0775 34.9143C21.5763 33.9611 21.0441 32.9884 20.481 31.9962C19.9185 31.0062 19.3616 30.0029 18.8101 28.9863H18.7718C18.2706 29.9777 17.7508 30.9688 17.2124 31.9595C16.6741 32.9502 16.1419 33.9348 15.6159 34.9132C15.0899 35.891 14.5515 36.8637 14.0007 37.8313C13.9002 38.054 13.7253 38.0778 13.4751 38.0778H8.32587C8.22643 38.0778 8.1707 38.1167 8.15758 38.0172C8.14333 37.9266 8.16315 37.8339 8.21332 37.7568L15.464 25.9763L8.40128 14.1634C8.32587 14.065 8.31385 13.984 8.36412 13.9224C8.39201 13.8912 8.42691 13.8669 8.46601 13.8515C8.50511 13.8362 8.54732 13.8301 8.58924 13.8337H13.886C14.0016 13.8276 14.1172 13.8464 14.2248 13.8889C14.3143 13.9399 14.3912 14.01 14.4499 14.0942C14.9001 15.0842 15.401 16.0749 15.9525 17.0663C16.5039 18.0578 17.0613 19.0337 17.6244 19.9942C18.1868 20.9604 18.7063 21.9389 19.1827 22.9296H19.221C19.7215 21.9144 20.2285 20.9236 20.7421 19.9574C21.2558 18.9912 21.7818 18.0185 22.3201 17.0393C22.8578 16.0609 23.3772 15.0882 23.8785 14.1212C23.9077 14.0294 23.9595 13.9462 24.0293 13.8791C24.122 13.8325 24.2263 13.8134 24.3298 13.824H29.2473C29.294 13.8154 29.3423 13.822 29.3848 13.8429C29.4273 13.8638 29.4618 13.8978 29.4831 13.9398C29.5043 13.9818 29.5111 14.0295 29.5025 14.0757C29.4939 14.1219 29.4703 14.1641 29.4353 14.1958L29.4386 14.2012Z" fill="#FF61F6"/>
<path d="M40.22 38.5363C38.4907 38.5625 36.7773 38.2073 35.2041 37.4966C33.739 36.8254 32.5141 35.7307 31.6908 34.3569C30.8399 32.9577 30.4141 31.2054 30.4133 29.1C30.4011 27.3962 30.8416 25.7191 31.6908 24.2365C32.5664 22.7264 33.8539 21.4904 35.4063 20.67C37.0331 19.7787 39.0001 19.333 41.3074 19.333C41.4319 19.333 41.5948 19.333 41.7958 19.3514C41.9969 19.3698 42.2329 19.3828 42.5094 19.4065V12.0832C42.5094 11.9103 42.5848 11.8238 42.7345 11.8238H47.4674C47.5197 11.8164 47.5728 11.8297 47.6152 11.8609C47.6576 11.8921 47.6858 11.9386 47.6936 11.9902C47.6958 12.0089 47.6958 12.0278 47.6936 12.0464V34.0035C47.6936 34.425 47.7122 34.8833 47.7493 35.3783C47.7865 35.8733 47.8178 36.3193 47.8433 36.7163C47.8479 36.7934 47.8289 36.8702 47.7887 36.9365C47.7486 37.0028 47.6892 37.0556 47.6182 37.0881C46.397 37.5915 45.1251 37.965 43.824 38.2023C42.6351 38.4192 41.429 38.531 40.22 38.5363ZM42.5149 33.93V23.7869C42.3119 23.7332 42.1046 23.6971 41.8953 23.6788C41.6393 23.6533 41.3821 23.6407 41.1249 23.641C40.213 23.6322 39.312 23.8358 38.4945 24.2354C37.7002 24.6273 37.0224 25.2165 36.5275 25.9452C36.0139 26.6881 35.7571 27.6662 35.7571 28.8795C35.7387 29.6894 35.8725 30.4957 36.1516 31.2573C36.3787 31.8709 36.7373 32.4287 37.2028 32.8925C37.6493 33.3185 38.1894 33.6366 38.7808 33.8219C39.406 34.0216 40.0592 34.1216 40.7162 34.1181C41.0658 34.1181 41.3911 34.1058 41.692 34.0813C41.969 34.0591 42.243 34.0084 42.5094 33.93H42.5149Z" fill="#FF61F6"/>
</g>
<defs>
<clipPath id="clip0_845_23">
<rect width="56" height="54" fill="white"/>
</clipPath>
</defs>
</svg>
