<svg width="55" height="53" viewBox="0 0 55 53" fill="none" xmlns="http://www.w3.org/2000/svg">
<g clip-path="url(#clip0_845_19)">
<path d="M45.2604 0H9.7396C4.36057 0 0 4.30973 0 9.62605V43.374C0 48.6903 4.36057 53 9.7396 53H45.2604C50.6394 53 55 48.6903 55 43.374V9.62605C55 4.30973 50.6394 0 45.2604 0Z" fill="#00005B"/>
<path d="M22.0957 31.709H13.5721L11.8378 37.0434C11.8151 37.1409 11.7584 37.2274 11.6774 37.2876C11.5965 37.3478 11.4967 37.3777 11.3956 37.3722H7.08334C6.83757 37.3722 6.75172 37.2375 6.82577 36.9702L14.2053 16.0527C14.2783 15.8342 14.3524 15.62 14.4264 15.341C14.5231 14.8543 14.5723 14.3595 14.5734 13.8634C14.5652 13.8042 14.581 13.7442 14.6174 13.6965C14.6538 13.6488 14.7078 13.6173 14.7677 13.6088C14.789 13.6056 14.8107 13.6056 14.8321 13.6088H20.6984C20.8701 13.6088 20.9688 13.6693 20.9935 13.7913L29.3647 37.0073C29.4363 37.2506 29.3626 37.3722 29.1437 37.3722H24.3463C24.2639 37.381 24.181 37.3599 24.1131 37.3129C24.0452 37.2659 23.9969 37.1961 23.9771 37.1166L22.0957 31.709ZM14.9051 27.2115H20.7349C20.5868 26.7257 20.4143 26.1787 20.2176 25.5706C20.0208 24.9625 19.8119 24.3122 19.5908 23.6199L18.9265 21.5409C18.7054 20.8486 18.5025 20.18 18.318 19.5351C18.1334 18.8902 17.9659 18.3008 17.8157 17.7669H17.7781C17.571 18.7518 17.3123 19.7254 17.0032 20.6839C16.6591 21.7785 16.3085 22.8969 15.9515 24.0389C15.5944 25.181 15.2442 26.2385 14.9008 27.2115H14.9051Z" fill="#9999FF"/>
<path d="M42.9423 29.6333H35.6733C35.7622 30.344 36.001 31.0284 36.3741 31.6423C36.7869 32.25 37.3703 32.7252 38.0527 33.0096C38.978 33.4053 39.9789 33.5992 40.9869 33.5781C41.7863 33.563 42.5827 33.4764 43.3663 33.3193C44.0673 33.2248 44.7542 33.0467 45.4118 32.7889C45.5349 32.6928 45.5964 32.7536 45.5964 32.9714V36.4357C45.6076 36.5221 45.5926 36.6099 45.5532 36.6879C45.5138 36.7659 45.4519 36.8306 45.3754 36.8738C44.6454 37.193 43.8772 37.419 43.0894 37.5463C42.0193 37.7454 40.9316 37.8371 39.8428 37.8199C38.0956 37.8199 36.6321 37.5526 35.4522 37.018C34.3365 36.5321 33.3509 35.7955 32.5738 34.8669C31.8492 33.9918 31.3098 32.9819 30.9876 31.8969C30.6692 30.8248 30.5076 29.7132 30.5078 28.5959C30.5047 27.3763 30.6978 26.164 31.0799 25.0043C31.4486 23.873 32.0313 22.8213 32.7971 21.9049C33.552 20.999 34.4962 20.2652 35.5649 19.7537C36.6467 19.2308 37.926 19.043 39.4017 19.043C40.6259 19.0132 41.8416 19.25 42.9627 19.7368C43.9051 20.1336 44.7346 20.7527 45.3786 21.54C45.9834 22.3108 46.4456 23.1813 46.7437 24.1112C47.0345 25.0071 47.184 25.9419 47.187 26.8828C47.187 27.4174 47.1684 27.9036 47.1312 28.3413C47.0947 28.7783 47.0635 29.0944 47.0399 29.2896C47.03 29.37 46.9907 29.4439 46.9294 29.4977C46.8682 29.5514 46.7891 29.5811 46.7072 29.5813C46.5598 29.5813 46.3076 29.5993 45.9506 29.6354C45.5943 29.6725 45.151 29.6959 44.623 29.7086C44.095 29.7213 43.5326 29.6333 42.9423 29.6333ZM35.6733 26.3111H40.5029C41.0932 26.3111 41.5296 26.3051 41.8122 26.2931C42.0019 26.2743 42.1851 26.2145 42.3488 26.118V25.8985C42.341 25.6135 42.2911 25.3312 42.2007 25.0605C42.0018 24.4382 41.6016 23.8977 41.0615 23.5221C40.5215 23.1464 39.8716 22.9565 39.2118 22.9815C38.5909 22.9447 37.9726 23.0872 37.4322 23.3915C36.8918 23.6958 36.4526 24.149 36.1681 24.6956C35.9168 25.2045 35.7497 25.7499 35.6733 26.3111Z" fill="#9999FF"/>
</g>
<defs>
<clipPath id="clip0_845_19">
<rect width="55" height="53" fill="white"/>
</clipPath>
</defs>
</svg>
