<svg width="16" height="14" viewBox="0 0 16 14" fill="none" xmlns="http://www.w3.org/2000/svg">
<path fill-rule="evenodd" clip-rule="evenodd" d="M0.25 7C0.25 6.58579 0.585786 6.25 1 6.25H15C15.4142 6.25 15.75 6.58579 15.75 7C15.75 7.41421 15.4142 7.75 15 7.75H1C0.585786 7.75 0.25 7.41421 0.25 7Z" fill="#5E5E65"/>
<path fill-rule="evenodd" clip-rule="evenodd" d="M15.5303 6.46967C15.8232 6.76256 15.8232 7.23744 15.5303 7.53033L9.53033 13.5303C9.23744 13.8232 8.76256 13.8232 8.46967 13.5303C8.17678 13.2374 8.17678 12.7626 8.46967 12.4697L14.4697 6.46967C14.7626 6.17678 15.2374 6.17678 15.5303 6.46967Z" fill="#5E5E65"/>
<path fill-rule="evenodd" clip-rule="evenodd" d="M8.46967 0.46967C8.76256 0.176777 9.23744 0.176777 9.53033 0.46967L15.5303 6.46967C15.8232 6.76256 15.8232 7.23744 15.5303 7.53033C15.2374 7.82322 14.7626 7.82322 14.4697 7.53033L8.46967 1.53033C8.17678 1.23744 8.17678 0.762563 8.46967 0.46967Z" fill="#5E5E65"/>
</svg>
