<svg width="68" height="54" viewBox="0 0 68 54" fill="none" xmlns="http://www.w3.org/2000/svg">
<path fill-rule="evenodd" clip-rule="evenodd" d="M14.1238 0C10.2438 0 7.37282 3.38458 7.50138 7.05508C7.62477 10.5814 7.46446 15.1486 6.31085 18.8731C5.15312 22.608 3.19653 24.9748 0 25.2786V28.7085C3.19653 29.0129 5.15312 31.3785 6.31072 35.114C7.46446 38.8385 7.62463 43.4057 7.50125 46.932C7.37269 50.602 10.2437 53.9871 14.1243 53.9871H53.8814C57.7614 53.9871 60.6318 50.6025 60.5033 46.932C60.3799 43.4057 60.5402 38.8385 61.6938 35.114C62.8515 31.3785 64.8033 29.012 68 28.7085V25.2786C64.8035 24.9742 62.8517 22.6085 61.6938 18.8731C60.5401 15.1491 60.3799 10.5814 60.5033 7.05508C60.6318 3.38511 57.7614 0 53.8814 0H14.1233H14.1238ZM46.1017 33.2326C46.1017 38.2867 42.3191 41.3519 36.0417 41.3519H25.3559C25.0502 41.3519 24.7571 41.2309 24.5409 41.0154C24.3248 40.8 24.2034 40.5079 24.2034 40.2032V13.784C24.2034 13.4794 24.3248 13.1872 24.5409 12.9718C24.7571 12.7564 25.0502 12.6353 25.3559 12.6353H35.9809C41.2152 12.6353 44.6504 15.4611 44.6504 19.7995C44.6504 22.8445 42.3394 25.5706 39.3954 26.0482V26.207C43.4031 26.6452 46.1017 29.4116 46.1017 33.2326ZM34.8766 16.2766H28.7837V24.8539H33.9154C37.8825 24.8539 40.0699 23.2618 40.0699 20.416C40.0695 17.7491 38.1889 16.2766 34.8766 16.2766ZM28.7837 28.2571V37.7094H35.1007C39.2312 37.7094 41.419 36.0577 41.419 32.9534C41.419 29.8492 39.1699 28.2566 34.8351 28.2566H28.7837V28.2571Z" fill="#7952B3"/>
</svg>
