<svg width="20" height="20" viewBox="0 0 20 20" fill="none" xmlns="http://www.w3.org/2000/svg">
<path fill-rule="evenodd" clip-rule="evenodd" d="M5.63404 11.8124C5.00361 11.687 4.35014 11.7514 3.75628 11.9974C3.16242 12.2434 2.65484 12.6599 2.29772 13.1944C1.94061 13.7289 1.75 14.3572 1.75 15V18.25H5C5.64279 18.25 6.27114 18.0594 6.8056 17.7023C7.34006 17.3452 7.75662 16.8376 8.00261 16.2437C8.24859 15.6499 8.31295 14.9964 8.18755 14.366C8.06215 13.7355 7.75262 13.1564 7.2981 12.7019C6.84358 12.2474 6.26448 11.9379 5.63404 11.8124ZM3.18225 10.6116C4.0502 10.2521 5.00527 10.158 5.92668 10.3413C6.84809 10.5246 7.69446 10.9769 8.35876 11.6412C9.02306 12.3055 9.47545 13.1519 9.65873 14.0733C9.84201 14.9947 9.74794 15.9498 9.38843 16.8177C9.02891 17.6857 8.42009 18.4275 7.63896 18.9495C6.85782 19.4714 5.93946 19.75 5 19.75H1C0.585786 19.75 0.25 19.4142 0.25 19V15C0.25 14.0605 0.528583 13.1422 1.05052 12.361C1.57246 11.5799 2.3143 10.9711 3.18225 10.6116Z" fill="#5E5E65"/>
<path fill-rule="evenodd" clip-rule="evenodd" d="M19.743 0.898359C19.7991 1.30875 19.5119 1.68695 19.1016 1.74308C16.3812 2.11518 13.8117 3.21484 11.6644 4.92598C9.51705 6.63713 7.87154 8.89628 6.90155 11.465C6.75522 11.8525 6.32246 12.048 5.93495 11.9016C5.54745 11.7553 5.35194 11.3225 5.49827 10.935C6.56367 8.11371 8.37103 5.63235 10.7296 3.7529C13.0881 1.87344 15.9103 0.665617 18.8983 0.256917C19.3087 0.200783 19.6869 0.487966 19.743 0.898359Z" fill="#5E5E65"/>
<path fill-rule="evenodd" clip-rule="evenodd" d="M19.1016 0.256917C19.512 0.313051 19.7992 0.691246 19.7431 1.10164C19.3344 4.08961 18.1266 6.91182 16.2471 9.27035C14.3677 11.6289 11.8863 13.4362 9.06496 14.5016C8.67746 14.648 8.2447 14.4525 8.09837 14.065C7.95204 13.6774 8.14755 13.2447 8.53505 13.0984C11.1037 12.1284 13.3629 10.4829 15.074 8.33554C16.7852 6.18822 17.8848 3.61875 18.2569 0.898359C18.3131 0.487966 18.6913 0.200783 19.1016 0.256917Z" fill="#5E5E65"/>
<path fill-rule="evenodd" clip-rule="evenodd" d="M7.91907 6.6857C8.09265 6.30961 8.53825 6.14545 8.91433 6.31903C11.0194 7.29064 12.7094 8.9806 13.681 11.0857C13.8546 11.4618 13.6904 11.9074 13.3143 12.081C12.9382 12.2545 12.4927 12.0904 12.3191 11.7143C11.4969 9.93306 10.067 8.50309 8.28573 7.68096C7.90965 7.50738 7.74548 7.06179 7.91907 6.6857Z" fill="#5E5E65"/>
</svg>
