<svg width="54" height="54" viewBox="0 0 54 54" fill="none" xmlns="http://www.w3.org/2000/svg">
<g clip-path="url(#clip0_845_43)">
<path d="M27 54C41.9117 54 54 41.9117 54 27C54 12.0883 41.9117 0 27 0C12.0883 0 0 12.0883 0 27C0 41.9117 12.0883 54 27 54Z" fill="#24BECA"/>
<path d="M38.4749 36.3657C37.0406 38.3063 35.1843 40.3313 32.7374 41.8501C30.3749 43.3688 27.6749 44.5501 24.4687 44.5501C21.5156 44.5501 19.0687 43.0313 17.7187 41.7657C15.6937 39.8251 14.5968 37.0407 14.2593 34.4251C13.2468 26.3251 18.2249 15.6095 25.9031 10.9688C27.6749 9.87197 29.6156 9.36572 31.4718 9.36572C35.1843 9.36572 37.9687 11.9813 38.3062 15.1876C38.6437 18.0563 37.5468 20.5032 34.3406 22.1063C32.7374 22.9501 31.8937 22.8657 31.6406 22.5282C31.4718 22.2751 31.5562 21.8532 31.8937 21.6001C34.8468 19.1532 34.9312 17.1282 34.5937 14.2595C34.3406 12.4032 33.1593 11.222 31.8093 11.222C25.9874 11.222 17.5499 24.3001 18.7312 33.7501C19.1531 37.4626 21.4312 41.7657 26.1562 41.7657C27.6749 41.7657 29.3624 41.3438 30.7968 40.5845C34.0874 38.897 35.5218 37.7157 37.4624 35.0157C37.7156 34.6782 37.9687 34.2563 38.2218 33.9188C38.3906 33.5813 38.7281 33.497 38.9812 33.497C39.2343 33.497 39.5718 33.7501 39.5718 34.172C39.5718 34.4251 39.4874 34.9313 39.1499 35.3532C39.0656 35.522 38.8124 36.0282 38.4749 36.3657Z" fill="white"/>
</g>
<defs>
<clipPath id="clip0_845_43">
<rect width="54" height="54" fill="white"/>
</clipPath>
</defs>
</svg>
