<?xml version="1.0" encoding="UTF-8"?>
<svg id="Layer_1" xmlns="http://www.w3.org/2000/svg" version="1.1" xmlns:xlink="http://www.w3.org/1999/xlink" viewBox="0 0 54 54">
  <!-- Generator: Adobe Illustrator 29.3.1, SVG Export Plug-In . SVG Version: 2.1.0 Build 151)  -->
  <defs>
    <style>
      .st0 {
        fill: #33a9dc;
      }

      .st1 {
        fill: none;
      }

      .st2 {
        fill: #1572b6;
      }

      .st3 {
        clip-path: url(#clippath);
      }
    </style>
    <clipPath id="clippath">
      <rect class="st1" width="54" height="54"/>
    </clipPath>
  </defs>
  <g class="st3">
    <g>
      <path class="st2" d="M3.19,0l4.34,48.6,19.44,5.4,19.5-5.41L50.81,0H3.19ZM14.8,39.88l-.84-9.36h5.99l.42,4.76,6.63,1.79h.02l.02-.01,6.62-1.79.7-7.73h-13.92l-.11-1.34-.27-3.02-.15-1.6h14.98l.54-6.1H12.62l-.12-1.34-.27-3.02-.14-1.6h29.86l-.15,1.6-1.44,16.17-.02.25-1.01,11.34-.1,1-12.19,3.38-.02.01h-.02l-12.2-3.39Z"/>
      <path class="st0" d="M27,27.54v9.53h.02l.02-.01,6.62-1.79.7-7.73h-7.36ZM27,3.98v5.54h14.95l-.15,1.6-1.44,16.17-.02.25-1.01,11.34-.1,1-12.19,3.38-.02.01h-.02v6.6l15.76-4.37,3.7-41.52h-19.46ZM35.43,15.48h-8.43v6.1h7.89l.54-6.1Z"/>
    </g>
  </g>
</svg>