<svg width="24" height="24" viewBox="0 0 24 24" fill="none" xmlns="http://www.w3.org/2000/svg">
<path d="M22 12C22.0017 13.3172 21.7424 14.6216 21.237 15.8379C20.7316 17.0543 19.9901 18.1584 19.0555 19.0865C18.1285 20.0118 17.0283 20.7454 15.8177 21.2454C14.6071 21.7453 13.3098 22.0017 12 22C6.47701 22 2.00001 17.523 2.00001 12C1.99651 9.43589 2.98144 6.96909 4.75001 5.11251C5.68318 4.12781 6.80747 3.34388 8.05407 2.8087C9.30068 2.27352 10.6434 1.99834 12 2.00001C13.3098 1.99831 14.6071 2.25475 15.8177 2.75466C17.0283 3.25458 18.1285 3.98817 19.0555 4.91351C19.9901 5.84162 20.7316 6.94575 21.237 8.16208C21.7424 9.37842 22.0017 10.6829 22 12Z" stroke="#FAFAFA" stroke-width="2" stroke-linecap="round" stroke-linejoin="round"/>
<path d="M22.0001 12C20.5411 12 16.5161 11.45 12.9136 13.0315C9.00014 14.75 6.16664 17.416 4.93164 19.0735" stroke="#FAFAFA" stroke-width="2" stroke-linecap="round" stroke-linejoin="round"/>
<path d="M8.25 2.72699C9.815 4.17149 13.23 7.84899 14.5 11.5C15.77 15.151 16.24 19.64 16.53 20.9175" stroke="#FAFAFA" stroke-width="2" stroke-linecap="round" stroke-linejoin="round"/>
<path d="M2 10.8275C3.889 10.9415 8.8895 11.044 12.0895 9.6775C15.2895 8.311 18.043 5.7975 18.9875 5M2.673 15.884C3.55416 18.0169 5.14335 19.7811 7.173 20.8795" stroke="#FAFAFA" stroke-width="2" stroke-linecap="round" stroke-linejoin="round"/>
<path d="M2.00001 12C1.99651 9.43589 2.98144 6.96909 4.75001 5.11251C5.68318 4.12781 6.80747 3.34388 8.05407 2.8087C9.30068 2.27352 10.6434 1.99834 12 2.00001M16 2.83201C17.1388 3.33028 18.175 4.03613 19.0555 4.91351C19.9901 5.84162 20.7316 6.94574 21.237 8.16208C21.7424 9.37842 22.0017 10.6829 22 12C22 13.231 21.7775 14.4105 21.37 15.5M12 22C13.3098 22.0017 14.6071 21.7453 15.8177 21.2454C17.0283 20.7454 18.1285 20.0118 19.0555 19.0865" stroke="#FAFAFA" stroke-width="2" stroke-linecap="round" stroke-linejoin="round"/>
</svg>
