<svg width="20" height="16" viewBox="0 0 20 16" fill="none" xmlns="http://www.w3.org/2000/svg">
<path fill-rule="evenodd" clip-rule="evenodd" d="M3 1.75C2.66848 1.75 2.35054 1.8817 2.11612 2.11612C1.8817 2.35054 1.75 2.66848 1.75 3V13C1.75 13.3315 1.8817 13.6495 2.11612 13.8839C2.35054 14.1183 2.66848 14.25 3 14.25H17C17.3315 14.25 17.6495 14.1183 17.8839 13.8839C18.1183 13.6495 18.25 13.3315 18.25 13V3C18.25 2.66848 18.1183 2.35054 17.8839 2.11612C17.6495 1.8817 17.3315 1.75 17 1.75H3ZM1.05546 1.05546C1.57118 0.539731 2.27065 0.25 3 0.25H17C17.7293 0.25 18.4288 0.539731 18.9445 1.05546C19.4603 1.57118 19.75 2.27065 19.75 3V13C19.75 13.7293 19.4603 14.4288 18.9445 14.9445C18.4288 15.4603 17.7293 15.75 17 15.75H3C2.27065 15.75 1.57118 15.4603 1.05546 14.9445C0.539731 14.4288 0.25 13.7293 0.25 13V3C0.25 2.27065 0.539731 1.57118 1.05546 1.05546Z" fill="#5E5E65"/>
<path fill-rule="evenodd" clip-rule="evenodd" d="M0.37592 2.58405C0.605684 2.23941 1.07134 2.14628 1.41598 2.37604L9.99996 8.09869L18.5839 2.37604C18.9286 2.14628 19.3942 2.23941 19.624 2.58405C19.8538 2.9287 19.7606 3.39435 19.416 3.62412L10.416 9.62412C10.1641 9.79207 9.83586 9.79207 9.58393 9.62412L0.583932 3.62412C0.239286 3.39435 0.146156 2.9287 0.37592 2.58405Z" fill="#5E5E65"/>
</svg>
