<svg width="54" height="54" viewBox="0 0 54 54" fill="none" xmlns="http://www.w3.org/2000/svg">
<path d="M18.0071 54C20.394 54 22.6832 53.0518 24.371 51.364C26.0589 49.6761 27.0071 47.3869 27.0071 45V36H18.0071C15.6201 36 13.3309 36.9482 11.6431 38.636C9.95529 40.3239 9.00708 42.6131 9.00708 45C9.00708 47.3869 9.95529 49.6761 11.6431 51.364C13.3309 53.0518 15.6201 54 18.0071 54Z" fill="#0ACF83"/>
<path d="M9.00708 27C9.00708 24.6131 9.95529 22.3239 11.6431 20.636C13.3309 18.9482 15.6201 18 18.0071 18H27.0071V36H18.0071C15.6201 36 13.3309 35.0518 11.6431 33.364C9.95529 31.6761 9.00708 29.3869 9.00708 27Z" fill="#A259FF"/>
<path d="M9.00708 9C9.00708 6.61427 9.95433 4.32615 11.6406 2.63852C13.3269 0.950898 15.6143 0.00186385 18 0L27 0V18H18.0071C15.6201 18 13.3309 17.0518 11.6431 15.364C9.95529 13.6761 9.00708 11.3869 9.00708 9Z" fill="#F24E1E"/>
<path d="M27.0071 0H36.0071C38.394 0 40.6832 0.948212 42.371 2.63604C44.0589 4.32387 45.0071 6.61305 45.0071 9C45.0071 11.3869 44.0589 13.6761 42.371 15.364C40.6832 17.0518 38.394 18 36.0071 18H27.0071V0Z" fill="#FF7262"/>
<path d="M45.0071 27C45.0071 29.3869 44.0589 31.6761 42.371 33.364C40.6832 35.0518 38.394 36 36.0071 36C33.6201 36 31.3309 35.0518 29.6431 33.364C27.9553 31.6761 27.0071 29.3869 27.0071 27C27.0071 24.6131 27.9553 22.3239 29.6431 20.636C31.3309 18.9482 33.6201 18 36.0071 18C38.394 18 40.6832 18.9482 42.371 20.636C44.0589 22.3239 45.0071 24.6131 45.0071 27Z" fill="#1ABCFE"/>
</svg>
