<svg width="24" height="24" viewBox="0 0 24 24" fill="none" xmlns="http://www.w3.org/2000/svg">
<path d="M5.88421 18.653C5.58421 18.453 5.32621 18.198 5.02421 17.837C4.86746 17.6451 4.71212 17.4521 4.55821 17.258C4.09521 16.683 3.80321 16.417 3.50221 16.308C3.37556 16.2661 3.25858 16.1992 3.15815 16.1114C3.05772 16.0236 2.97588 15.9166 2.91745 15.7967C2.85901 15.6767 2.82516 15.5463 2.81789 15.4131C2.81062 15.2799 2.83008 15.1466 2.87512 15.021C2.92016 14.8954 2.98986 14.7802 3.08014 14.6819C3.17041 14.5837 3.27943 14.5045 3.40076 14.4491C3.5221 14.3936 3.6533 14.363 3.78665 14.3591C3.91999 14.3551 4.05279 14.3778 4.17721 14.426C4.92921 14.696 5.43821 15.161 6.12421 16.014C6.03021 15.897 6.46421 16.441 6.55721 16.553C6.74721 16.78 6.88721 16.918 6.99721 16.991C7.20121 17.128 7.58521 17.187 8.14721 17.131C8.17121 16.749 8.24121 16.378 8.34921 16.036C5.38121 15.31 3.70121 13.396 3.70121 9.63998C3.70121 8.39998 4.07121 7.28398 4.75921 6.34798C4.54121 5.45398 4.57421 4.37298 5.06121 3.15598C5.11647 3.01831 5.20168 2.89467 5.31064 2.79401C5.41961 2.69335 5.5496 2.61819 5.69121 2.57398C5.77221 2.54998 5.81821 2.53898 5.89921 2.52698C6.70221 2.40298 7.83621 2.69698 9.31421 3.62298C10.195 3.41705 11.0967 3.3137 12.0012 3.31498C12.9132 3.31498 13.8202 3.41898 14.6852 3.62298C16.1622 2.68998 17.2992 2.39598 18.1072 2.52698C18.1922 2.53998 18.2652 2.55698 18.3252 2.57698C18.464 2.62276 18.5911 2.69841 18.6976 2.79862C18.804 2.89883 18.8872 3.02116 18.9412 3.15698C19.4282 4.37298 19.4612 5.45298 19.2432 6.34698C19.9342 7.28298 20.3012 8.39198 20.3012 9.63998C20.3012 13.397 18.6272 15.305 15.6592 16.032C15.7842 16.447 15.8492 16.91 15.8492 17.412C15.8492 18.077 15.8472 18.711 15.8422 19.422C15.8422 19.612 15.8402 19.816 15.8372 20.128C16.0618 20.1769 16.2627 20.3016 16.4061 20.4813C16.5495 20.6609 16.6266 20.8845 16.6245 21.1143C16.6224 21.3441 16.5412 21.5662 16.3945 21.7432C16.2478 21.9202 16.0447 22.0412 15.8192 22.086C14.6792 22.313 13.8352 21.554 13.8352 20.561L13.8372 20.114L13.8422 19.409C13.8472 18.702 13.8502 18.072 13.8502 17.412C13.8502 16.715 13.6662 16.26 13.4242 16.051C12.7632 15.481 13.0982 14.397 13.9652 14.3C16.9312 13.967 18.3012 12.818 18.3012 9.63998C18.3012 8.68498 17.9892 7.89598 17.3882 7.23598C17.2617 7.09692 17.177 6.92503 17.1438 6.74002C17.1105 6.55501 17.1301 6.36438 17.2002 6.18998C17.3662 5.77598 17.4362 5.23298 17.2952 4.57598L17.2852 4.57898C16.7942 4.71798 16.1752 5.01898 15.4272 5.52798C15.3066 5.60983 15.1695 5.66433 15.0256 5.68765C14.8818 5.71097 14.7345 5.70255 14.5942 5.66298C13.7501 5.42927 12.8781 5.31185 12.0022 5.31398C11.1122 5.31398 10.2302 5.43198 9.41021 5.66398C9.27057 5.70308 9.12411 5.71135 8.98096 5.68822C8.83781 5.66508 8.70141 5.61108 8.58121 5.52998C7.82821 5.02298 7.20721 4.72298 6.71121 4.58298C6.56821 5.23598 6.63921 5.77698 6.80421 6.18998C6.87401 6.36434 6.89331 6.55483 6.85988 6.73964C6.82646 6.92445 6.74166 7.09612 6.61521 7.23498C6.01821 7.88998 5.70221 8.69298 5.70221 9.63898C5.70221 12.811 7.07321 13.967 10.0242 14.299C10.8892 14.396 11.2262 15.476 10.5692 16.047C10.3762 16.215 10.1392 16.779 10.1392 17.411V20.561C10.1392 21.546 9.30521 22.286 8.17921 22.089C7.95097 22.0489 7.74374 21.9308 7.59292 21.7549C7.44211 21.579 7.35707 21.3561 7.35235 21.1244C7.34763 20.8928 7.42351 20.6666 7.56703 20.4847C7.71055 20.3028 7.9128 20.1763 8.13921 20.127V19.137C7.22921 19.198 6.47821 19.049 5.88521 18.652" fill="#FAFAFA"/>
</svg>
