<svg width="20" height="20" viewBox="0 0 20 20" fill="none" xmlns="http://www.w3.org/2000/svg">
<path fill-rule="evenodd" clip-rule="evenodd" d="M6.75 7C6.75 6.58579 7.08579 6.25 7.5 6.25H10.5C10.9142 6.25 11.25 6.58579 11.25 7C11.25 7.41421 10.9142 7.75 10.5 7.75H7.5C7.08579 7.75 6.75 7.41421 6.75 7Z" fill="#5E5E65"/>
<path fill-rule="evenodd" clip-rule="evenodd" d="M1.25 7C1.25 6.58579 1.58579 6.25 2 6.25H4.5C4.91421 6.25 5.25 6.58579 5.25 7C5.25 7.41421 4.91421 7.75 4.5 7.75H2C1.58579 7.75 1.25 7.41421 1.25 7Z" fill="#5E5E65"/>
<path fill-rule="evenodd" clip-rule="evenodd" d="M8.80261 6.27643C9.20222 6.16744 9.61453 6.40304 9.72352 6.80266L12.1696 15.7716L15.3146 8.6954C15.4828 8.31688 15.926 8.14641 16.3045 8.31464C16.6831 8.48287 16.8535 8.92609 16.6853 9.30461L12.6853 18.3046C12.5565 18.5944 12.2593 18.7719 11.943 18.7478C11.6267 18.7238 11.3598 18.5033 11.2764 18.1973L8.27637 7.19734C8.16738 6.79772 8.40299 6.38542 8.80261 6.27643Z" fill="#5E5E65"/>
<path fill-rule="evenodd" clip-rule="evenodd" d="M3.27255 6.2853C3.66727 6.15971 4.08906 6.37788 4.21465 6.7726L7.10398 15.8533L9.3106 10.7046C9.47376 10.3238 9.91467 10.1475 10.2954 10.3106C10.6761 10.4738 10.8525 10.9147 10.6893 11.2954L7.68932 18.2954C7.56592 18.5834 7.27655 18.7643 6.96366 18.7491C6.65076 18.734 6.38025 18.5259 6.28526 18.2274L2.78526 7.2274C2.65967 6.83269 2.87784 6.4109 3.27255 6.2853Z" fill="#5E5E65"/>
<path fill-rule="evenodd" clip-rule="evenodd" d="M13.5836 4.0957C13.8808 3.60299 14.399 3.25 15.125 3.25C15.8478 3.25 16.5504 3.49449 17.0536 4.1058C17.5374 4.69345 17.75 5.51594 17.75 6.5C17.75 7.25113 17.4773 7.87511 17.2245 8.33765C17.1303 8.51 17.0289 8.67694 16.9457 8.8138C16.9199 8.85626 16.8959 8.89582 16.8743 8.93175C16.7688 9.10788 16.726 9.19399 16.7111 9.23838C16.5943 9.58692 16.242 9.79941 15.8792 9.74021C15.5164 9.68102 15.25 9.3676 15.25 9C15.25 8.62255 15.0442 8.40971 14.4835 7.87719C13.9725 7.39182 13.25 6.68344 13.25 5.429C13.25 5.05032 13.3162 4.53885 13.5836 4.0957ZM14.8679 4.87055C14.7973 4.98765 14.75 5.19068 14.75 5.429C14.75 6.00456 15.0275 6.32518 15.5165 6.78956C15.5471 6.81865 15.5795 6.8489 15.6132 6.88041C15.7476 7.00615 15.9033 7.15179 16.0556 7.32244C16.1754 7.05209 16.25 6.78219 16.25 6.5C16.25 5.70406 16.0746 5.27655 15.8956 5.0592C15.7361 4.86551 15.5012 4.75 15.125 4.75C15.0175 4.75 14.9677 4.77304 14.9473 4.78495C14.9252 4.79779 14.898 4.82079 14.8679 4.87055Z" fill="#5E5E65"/>
<path fill-rule="evenodd" clip-rule="evenodd" d="M6.26884 0.992175C7.45176 0.502191 8.71961 0.25 10 0.25C11.2804 0.25 12.5482 0.502191 13.7312 0.992175C14.9141 1.48216 15.9889 2.20034 16.8943 3.10571C17.7997 4.01108 18.5178 5.08591 19.0078 6.26884C19.4978 7.45176 19.75 8.71961 19.75 10C19.75 11.2804 19.4978 12.5482 19.0078 13.7312C18.5178 14.9141 17.7997 15.9889 16.8943 16.8943C15.9889 17.7997 14.9141 18.5178 13.7312 19.0078C12.5482 19.4978 11.2804 19.75 10 19.75C8.71961 19.75 7.45176 19.4978 6.26884 19.0078C5.08591 18.5178 4.01108 17.7997 3.10571 16.8943C2.20034 15.9889 1.48216 14.9141 0.992174 13.7312C0.502191 12.5482 0.25 11.2804 0.25 10C0.25 8.71961 0.502191 7.45176 0.992174 6.26884C1.48216 5.08591 2.20034 4.01108 3.10571 3.10571C4.01108 2.20034 5.08591 1.48216 6.26884 0.992175ZM10 1.75C8.91659 1.75 7.8438 1.96339 6.84286 2.37799C5.84193 2.7926 4.93245 3.40029 4.16637 4.16637C3.40029 4.93245 2.79259 5.84193 2.37799 6.84286C1.96339 7.8438 1.75 8.91659 1.75 10C1.75 11.0834 1.96339 12.1562 2.37799 13.1571C2.79259 14.1581 3.40029 15.0675 4.16637 15.8336C4.93245 16.5997 5.84193 17.2074 6.84286 17.622C7.8438 18.0366 8.91659 18.25 10 18.25C11.0834 18.25 12.1562 18.0366 13.1571 17.622C14.1581 17.2074 15.0675 16.5997 15.8336 15.8336C16.5997 15.0675 17.2074 14.1581 17.622 13.1571C18.0366 12.1562 18.25 11.0834 18.25 10C18.25 8.91659 18.0366 7.8438 17.622 6.84286C17.2074 5.84193 16.5997 4.93245 15.8336 4.16637C15.0675 3.40029 14.1581 2.7926 13.1571 2.37799C12.1562 1.96339 11.0834 1.75 10 1.75Z" fill="#5E5E65"/>
</svg>
