<svg width="81" height="73" viewBox="0 0 81 73" fill="none" xmlns="http://www.w3.org/2000/svg">
<path d="M55.5422 0H25.4578C21.7408 0 18.3084 1.9948 16.442 5.20863L1.39982 31.2835C-0.466608 34.5131 -0.466608 38.4869 1.39982 41.7165L16.442 67.7914C18.3084 71.021 21.7408 73 25.4578 73H55.5422C59.2592 73 62.6916 71.0052 64.558 67.7914L79.6002 41.7165C81.4666 38.4869 81.4666 34.5131 79.6002 31.2835L64.5738 5.20863C62.6916 1.97896 59.2592 0 55.5422 0Z" fill="#62A92B"/>
<g clip-path="url(#clip0_4679_2065)">
<path fill-rule="evenodd" clip-rule="evenodd" d="M31.7801 27.1088C32.5177 27.8465 32.5177 29.0424 31.7801 29.7801L25.5602 36L31.7801 42.2199C32.5177 42.9575 32.5177 44.1536 31.7801 44.8912C31.0424 45.6288 29.8465 45.6288 29.1088 44.8912L21.5532 37.3357C20.8156 36.598 20.8156 35.402 21.5532 34.6643L29.1088 27.1088C29.8465 26.3711 31.0424 26.3711 31.7801 27.1088Z" fill="white"/>
<path fill-rule="evenodd" clip-rule="evenodd" d="M47.9977 27.1088C48.7353 26.3711 49.9313 26.3711 50.6689 27.1088L58.2245 34.6643C58.9621 35.402 58.9621 36.598 58.2245 37.3357L50.6689 44.8912C49.9313 45.6288 48.7353 45.6288 47.9977 44.8912C47.2601 44.1536 47.2601 42.9575 47.9977 42.2199L54.2176 36L47.9977 29.7801C47.2601 29.0424 47.2601 27.8465 47.9977 27.1088Z" fill="white"/>
<path fill-rule="evenodd" clip-rule="evenodd" d="M44.1248 19.0564C45.1368 19.3094 45.7522 20.3349 45.4991 21.347L37.9436 51.5692C37.6906 52.5812 36.6651 53.1966 35.653 52.9435C34.641 52.6906 34.0256 51.6651 34.2786 50.6531L41.8343 20.4308C42.0872 19.4187 43.1127 18.8034 44.1248 19.0564Z" fill="white"/>
</g>
<defs>
<clipPath id="clip0_4679_2065">
<rect width="37.7778" height="34" fill="white" transform="translate(21 19)"/>
</clipPath>
</defs>
</svg>
