<?xml version="1.0" encoding="UTF-8"?>
<svg id="Layer_1" xmlns="http://www.w3.org/2000/svg" version="1.1" viewBox="0 0 46.38 52.6">
  <!-- Generator: Adobe Illustrator 29.3.1, SVG Export Plug-In . SVG Version: 2.1.0 Build 151)  -->
  <defs>
    <style>
      .st0 {
        fill: #fff;
      }

      .st1 {
        fill: #e44d26;
      }

      .st2 {
        fill: #f16529;
      }
    </style>
  </defs>
  <path class="st1" d="M-.002,0l4.22,47.34,18.94,5.26,18.99-5.27L46.378,0H-.002ZM11.268,39.26l-.81-9.12h5.83l.41,4.63,6.46,1.75h.01l.02-.01v-.01l6.46-1.73.67-7.53H10.198l-1.43-16-.14-1.56h29.08l-.13,1.56-.27,2.94-.12,1.3H14.978l.53,5.95h21.16l-.15,1.56-1.36,15.28-.09.99-11.88,3.28v.01l-.03.01-11.89-3.3Z"/>
  <polygon class="st2" points="30.32 27.24 29.65 34.77 23.19 36.5 23.19 27.24 30.32 27.24"/>
  <polygon class="st2" points="42.148 3.87 38.538 44.32 23.188 48.58 23.188 42.54 35.068 39.26 35.158 38.27 36.518 22.99 36.668 21.43 23.188 21.43 23.188 15.48 37.188 15.48 37.308 14.18 37.578 11.24 37.708 9.68 23.188 9.68 23.188 3.87 42.148 3.87"/>
  <path class="st0" d="M23.17,21.43v5.81h.02v-5.81h-.02ZM23.17,36.51v6.04h.02v-6.04h-.02ZM23.17,9.68v5.8h.02v-5.8h-.02Z"/>
</svg>