<svg width="22" height="20" viewBox="0 0 22 20" fill="none" xmlns="http://www.w3.org/2000/svg">
<path fill-rule="evenodd" clip-rule="evenodd" d="M13 0.25C13.4142 0.25 13.75 0.585786 13.75 1V5C13.75 5.0663 13.7763 5.12989 13.8232 5.17678C13.8701 5.22366 13.9337 5.25 14 5.25H18C18.4142 5.25 18.75 5.58579 18.75 6C18.75 6.41421 18.4142 6.75 18 6.75H14C13.5359 6.75 13.0908 6.56563 12.7626 6.23744C12.4344 5.90925 12.25 5.46413 12.25 5V1C12.25 0.585786 12.5858 0.25 13 0.25Z" fill="#5E5E65"/>
<path fill-rule="evenodd" clip-rule="evenodd" d="M6 1.75C5.66848 1.75 5.35054 1.8817 5.11612 2.11612C4.8817 2.35054 4.75 2.66848 4.75 3V10C4.75 10.4142 4.41421 10.75 4 10.75C3.58579 10.75 3.25 10.4142 3.25 10V3C3.25 2.27065 3.53973 1.57118 4.05546 1.05546C4.57118 0.539731 5.27065 0.25 6 0.25H13C13.1989 0.25 13.3897 0.329018 13.5303 0.46967L18.5303 5.46967C18.671 5.61032 18.75 5.80109 18.75 6V10C18.75 10.4142 18.4142 10.75 18 10.75C17.5858 10.75 17.25 10.4142 17.25 10V6.31066L12.6893 1.75H6Z" fill="#5E5E65"/>
<path fill-rule="evenodd" clip-rule="evenodd" d="M1 12.25C1.41421 12.25 1.75 12.5858 1.75 13V19C1.75 19.4142 1.41421 19.75 1 19.75C0.585786 19.75 0.25 19.4142 0.25 19V13C0.25 12.5858 0.585786 12.25 1 12.25Z" fill="#5E5E65"/>
<path fill-rule="evenodd" clip-rule="evenodd" d="M4 12.25C4.41421 12.25 4.75 12.5858 4.75 13V19C4.75 19.4142 4.41421 19.75 4 19.75C3.58579 19.75 3.25 19.4142 3.25 19V13C3.25 12.5858 3.58579 12.25 4 12.25Z" fill="#5E5E65"/>
<path fill-rule="evenodd" clip-rule="evenodd" d="M0.25 16C0.25 15.5858 0.585786 15.25 1 15.25H4C4.41421 15.25 4.75 15.5858 4.75 16C4.75 16.4142 4.41421 16.75 4 16.75H1C0.585786 16.75 0.25 16.4142 0.25 16Z" fill="#5E5E65"/>
<path fill-rule="evenodd" clip-rule="evenodd" d="M19 12.25C19.4142 12.25 19.75 12.5858 19.75 13V18.25H21C21.4142 18.25 21.75 18.5858 21.75 19C21.75 19.4142 21.4142 19.75 21 19.75H19C18.5858 19.75 18.25 19.4142 18.25 19V13C18.25 12.5858 18.5858 12.25 19 12.25Z" fill="#5E5E65"/>
<path fill-rule="evenodd" clip-rule="evenodd" d="M11.7827 12.2822C12.099 12.1864 12.4407 12.309 12.624 12.584L14 14.6479L15.376 12.584C15.5593 12.309 15.901 12.1864 16.2173 12.2822C16.5337 12.378 16.75 12.6695 16.75 13V19C16.75 19.4142 16.4142 19.75 16 19.75C15.5858 19.75 15.25 19.4142 15.25 19V15.4771L14.624 16.416C14.4849 16.6247 14.2508 16.75 14 16.75C13.7492 16.75 13.5151 16.6247 13.376 16.416L12.75 15.4771V19C12.75 19.4142 12.4142 19.75 12 19.75C11.5858 19.75 11.25 19.4142 11.25 19V13C11.25 12.6695 11.4663 12.378 11.7827 12.2822Z" fill="#5E5E65"/>
<path fill-rule="evenodd" clip-rule="evenodd" d="M5.75 13C5.75 12.5858 6.08579 12.25 6.5 12.25H9.5C9.91421 12.25 10.25 12.5858 10.25 13C10.25 13.4142 9.91421 13.75 9.5 13.75H6.5C6.08579 13.75 5.75 13.4142 5.75 13Z" fill="#5E5E65"/>
<path fill-rule="evenodd" clip-rule="evenodd" d="M8 12.25C8.41421 12.25 8.75 12.5858 8.75 13V19C8.75 19.4142 8.41421 19.75 8 19.75C7.58579 19.75 7.25 19.4142 7.25 19V13C7.25 12.5858 7.58579 12.25 8 12.25Z" fill="#5E5E65"/>
</svg>
