<svg width="55" height="55" viewBox="0 0 55 55" fill="none" xmlns="http://www.w3.org/2000/svg">
<path d="M54.0271 27.2175C54.0271 42.2493 41.9328 54.435 27.0136 54.435C12.0944 54.435 0 42.2493 0 27.2175C0 12.1857 12.0944 0 27.0136 0C41.9328 0 54.0271 12.1857 54.0271 27.2175Z" fill="#FFE147"/>
<path fill-rule="evenodd" clip-rule="evenodd" d="M25.2589 41.3581C24.5482 40.1281 24.9616 38.5506 26.1824 37.8345L42.0581 28.5215L34.0479 25.4538L34.676 27.2823C35.138 28.6272 34.4304 30.0949 33.0955 30.5604C31.7607 31.0259 30.304 30.3129 29.842 28.968L27.4239 21.9286C27.099 20.9829 27.3469 19.9333 28.0597 19.2364C28.7725 18.5395 29.8212 18.3214 30.7496 18.677L48.8857 25.6226C49.8069 25.9755 50.4453 26.8305 50.5259 27.8204C50.6065 28.8102 50.1158 29.7587 49.2639 30.2584L28.7561 42.2885C27.5354 43.0046 25.9696 42.588 25.2589 41.3581Z" fill="#111457"/>
<path fill-rule="evenodd" clip-rule="evenodd" d="M28.7492 13.0425C29.46 14.2724 29.0465 15.85 27.8258 16.5661L11.95 25.8791L19.9603 28.9468L19.3322 27.1183C18.8702 25.7734 19.5778 24.3057 20.9126 23.8402C22.2475 23.3747 23.7041 24.0876 24.1661 25.4326L26.5843 32.4719C26.9091 33.4176 26.6612 34.4673 25.9485 35.1642C25.2357 35.861 24.187 36.0792 23.2585 35.7236L5.12256 28.7779C4.20114 28.4251 3.563 27.57 3.48226 26.5802C3.40152 25.5904 3.89255 24.6418 4.74442 24.1421L25.2521 12.1121C26.4728 11.396 28.0385 11.8126 28.7492 13.0425Z" fill="#111457"/>
</svg>
