<svg width="55" height="53" viewBox="0 0 55 53" fill="none" xmlns="http://www.w3.org/2000/svg">
<path d="M42.4764 0H12.1459C5.43789 0 0 5.43789 0 12.1459V40.8541C0 47.5621 5.43789 53 12.1459 53H42.4764C49.1843 53 54.6222 47.5621 54.6222 40.8541V12.1459C54.6222 5.43789 49.1843 0 42.4764 0Z" fill="#271302"/>
<path d="M42.4764 2.52881H12.1459C6.83451 2.52881 2.52881 6.83451 2.52881 12.1459V40.8541C2.52881 46.1655 6.83451 50.4712 12.1459 50.4712H42.4764C47.7877 50.4712 52.0934 46.1655 52.0934 40.8541V12.1459C52.0934 6.83451 47.7877 2.52881 42.4764 2.52881Z" fill="#271302"/>
<path d="M19.1369 30.9474L17.5956 35.7015C17.5742 35.7775 17.5277 35.8438 17.4636 35.8898C17.3995 35.9357 17.3216 35.9585 17.2429 35.9544H13.5167C13.2916 35.9544 13.2271 35.828 13.2638 35.6333L19.687 17.0996C19.8134 16.7469 19.9398 16.3612 20.0081 15.1411C20.0053 15.0859 20.0237 15.0317 20.0598 14.9898C20.0958 14.9479 20.1466 14.9215 20.2016 14.916H25.3401C25.5007 14.916 25.5652 14.9476 25.593 15.1082L32.8848 35.6649C32.9493 35.8255 32.9164 35.9544 32.7242 35.9544H28.5517C28.4754 35.9654 28.3976 35.9487 28.3325 35.9075C28.2674 35.8662 28.2191 35.803 28.1964 35.7294L26.5527 30.9436L19.1369 30.9474ZM25.3692 26.9329C24.7269 24.8125 23.441 20.9257 22.8315 18.646H22.7987C22.2853 20.7955 21.1284 24.3358 20.2939 26.9329H25.3692Z" fill="#FF7C01"/>
<path d="M34.8115 15.7871C34.8115 14.3419 35.8711 13.314 37.3163 13.314C38.8576 13.314 39.7895 14.3419 39.7895 15.7871C39.7895 17.2968 38.7944 18.2919 37.2847 18.2919C35.775 18.2919 34.8115 17.2968 34.8115 15.7871ZM35.0353 20.2517C35.0353 20.0912 35.0998 19.9989 35.2882 19.9989H39.2382C39.4317 19.9989 39.4911 20.0621 39.4911 20.2517V35.6686C39.4911 35.8621 39.4595 35.9582 39.2028 35.9582H35.3565C35.1327 35.9582 35.0353 35.8621 35.0353 35.6686V20.2517Z" fill="#FF7C01"/>
</svg>
