<svg width="54" height="54" viewBox="0 0 54 54" fill="none" xmlns="http://www.w3.org/2000/svg">
<g clip-path="url(#clip0_845_38)">
<path fill-rule="evenodd" clip-rule="evenodd" d="M11.2067 34.3967C11.013 35.2215 10.9156 36.1121 10.9156 36.8385C10.9156 39.701 12.4681 41.6015 15.7667 41.6015C18.5026 41.6015 20.7208 39.9765 22.3176 37.3532L21.3427 41.267H26.7756L29.8806 28.8132C30.6568 25.6601 32.1604 24.0233 34.4406 24.0233C36.2357 24.0233 37.3511 25.1395 37.3511 26.9823C37.3511 27.5164 37.3026 28.0977 37.1085 28.7288L35.5075 34.4528C35.265 35.2776 35.1683 36.1028 35.1683 36.8782C35.1683 39.5959 36.7689 41.5834 40.1161 41.5834C42.9781 41.5834 45.2583 39.741 46.5197 35.3261L44.3855 34.5022C43.3181 37.46 42.3963 37.9945 41.6686 37.9945C40.9409 37.9945 40.5527 37.5097 40.5527 36.5399C40.5527 36.1032 40.6502 35.6189 40.7953 35.0355L42.3482 29.4587C42.7359 28.1492 42.8819 26.9882 42.8819 25.9213C42.8819 21.7493 40.3591 19.572 37.303 19.572C34.441 19.572 31.5301 22.1535 30.075 24.8704L31.142 19.9935H22.8466L21.6823 24.289H25.5635L23.174 33.8572C21.2971 38.0291 17.8495 38.0966 17.4171 38C16.7067 37.8397 16.2523 37.5701 16.2523 36.647C16.2523 36.1142 16.3493 35.3493 16.5919 34.4267L20.2306 19.9935H11.013L9.84867 24.289H13.681L11.2067 34.3967ZM18.047 16.9897C19.842 16.9897 21.3456 15.5828 21.3456 13.7388C21.3456 11.896 19.842 10.4895 18.047 10.4895C16.2519 10.4895 14.7483 11.896 14.7483 13.7388C14.7483 15.5828 16.2519 16.9897 18.047 16.9897ZM49.105 0H4.89502C2.19164 0 0 2.19164 0 4.89502V49.1046C0 51.8084 2.19164 54 4.89502 54H49.1046C51.8079 54 53.9996 51.8084 53.9996 49.105V4.89502C54 2.19164 51.8084 0 49.105 0Z" fill="#FF2A63"/>
</g>
<defs>
<clipPath id="clip0_845_38">
<rect width="54" height="54" fill="white"/>
</clipPath>
</defs>
</svg>
