<?xml version="1.0" encoding="UTF-8"?>
<svg id="Layer_1" xmlns="http://www.w3.org/2000/svg" version="1.1" xmlns:xlink="http://www.w3.org/1999/xlink" viewBox="0 0 47 54">
  <!-- Generator: Adobe Illustrator 29.3.1, SVG Export Plug-In . SVG Version: 2.1.0 Build 151)  -->
  <defs>
    <style>
      .st0 {
        fill: none;
      }

      .st1 {
        fill: #e9ca32;
      }

      .st2 {
        fill: #ffde25;
      }

      .st3 {
        clip-path: url(#clippath);
      }
    </style>
    <clipPath id="clippath">
      <rect class="st0" width="47" height="54"/>
    </clipPath>
  </defs>
  <g class="st3">
    <g>
      <path class="st1" d="M0,.09l3.94,48.25,19.74,5.57,19.16-5.57L47,.19,0,.09ZM21.6,46.67l-13.83-3.61v-8.94l4.74.76v4l3.98.76V9.98h5.11v36.69ZM38.66,24.99l-.95,18.83-12.27,2.85v-5.89l8.29-2.85.48-7.8-8.77,1.28V9.98h14.17l-.95,5.68h-7.81v9.33h7.81Z"/>
      <path class="st2" d="M23.68,4.69v44.56l15.9-4.63,3.45-39.87-19.35-.06ZM38.66,15.66h-7.81v9.33h7.81l-.95,18.83-12.27,2.85v-5.89l8.29-2.85.48-7.8-8.77,1.28V9.98h14.17l-.95,5.68Z"/>
    </g>
  </g>
</svg>