<svg width="22" height="16" viewBox="0 0 22 16" fill="none" xmlns="http://www.w3.org/2000/svg">
<path fill-rule="evenodd" clip-rule="evenodd" d="M6.99419 0.25005L6.99981 0.250008C7.70044 0.250029 8.35435 0.570792 8.80148 1.1085L13.1675 6.36258C13.5441 6.82522 13.7496 7.40352 13.7496 8.00003C13.7496 8.59653 13.544 9.17481 13.1675 9.63746L13.1627 9.64339L8.80383 14.8887C8.58623 15.1551 8.31269 15.3703 8.00261 15.5191C7.69127 15.6686 7.35077 15.7474 7.00543 15.75L6.99981 15.75C6.29919 15.75 5.64527 15.4293 5.19814 14.8916L0.832088 9.63748C0.455553 9.17484 0.25 8.59653 0.25 8.00003C0.25 7.40352 0.455583 6.82524 0.832118 6.3626L0.836949 6.35667L5.19579 1.11133C5.41339 0.844986 5.68692 0.629756 5.99702 0.480912C6.30835 0.331471 6.64885 0.252639 6.99419 0.25005ZM7.00259 1.75003C6.87913 1.75137 6.75745 1.77976 6.64611 1.8332C6.53392 1.88705 6.43502 1.96501 6.35645 2.06152L6.35167 2.06739L1.99341 7.31204C1.83594 7.50672 1.75 7.74957 1.75 8.00003C1.75 8.25049 1.83594 8.49333 1.9934 8.68801L6.35148 13.9325C6.35154 13.9326 6.35143 13.9324 6.35148 13.9325C6.52565 14.1418 6.76263 14.2492 6.99702 14.25C7.12049 14.2487 7.24217 14.2203 7.35351 14.1669C7.4657 14.113 7.56461 14.035 7.64317 13.9385L7.64795 13.9327L12.0062 8.68802C12.1637 8.49334 12.2496 8.25049 12.2496 8.00003C12.2496 7.74956 12.1637 7.50672 12.0062 7.31203L7.64814 2.06756C7.64809 2.0675 7.64819 2.06762 7.64814 2.06756C7.47397 1.85822 7.23699 1.75087 7.00259 1.75003Z" fill="#5E5E65"/>
<path fill-rule="evenodd" clip-rule="evenodd" d="M15.5364 0.410321C15.8621 0.154391 16.3336 0.210942 16.5895 0.53663L21.1719 6.36802C21.5456 6.82976 21.7496 7.40585 21.7496 8.00003C21.7496 8.59422 21.5456 9.17032 21.1719 9.63206L16.5895 15.4634C16.3336 15.7891 15.8621 15.8457 15.5364 15.5897C15.2107 15.3338 15.1541 14.8623 15.4101 14.5366L20.004 8.69053C20.1628 8.49542 20.2496 8.2516 20.2496 8.00003C20.2496 7.74846 20.1629 7.50458 20.0041 7.30946L19.996 7.2995L15.4101 1.46343C15.1541 1.13775 15.2107 0.666251 15.5364 0.410321Z" fill="#5E5E65"/>
<path fill-rule="evenodd" clip-rule="evenodd" d="M11.5364 0.410321C11.8621 0.154391 12.3336 0.210942 12.5895 0.53663L17.1719 6.36802C17.5456 6.82976 17.7496 7.40585 17.7496 8.00003C17.7496 8.59422 17.5456 9.17032 17.1719 9.63206L12.5895 15.4634C12.3336 15.7891 11.8621 15.8457 11.5364 15.5897C11.2107 15.3338 11.1541 14.8623 11.4101 14.5366L16.004 8.69053C16.1628 8.49542 16.2496 8.2516 16.2496 8.00003C16.2496 7.74846 16.1629 7.50458 16.0041 7.30946L15.996 7.2995L11.4101 1.46343C11.1541 1.13775 11.2107 0.666251 11.5364 0.410321Z" fill="#5E5E65"/>
</svg>
