<svg width="18" height="18" viewBox="0 0 18 18" fill="none" xmlns="http://www.w3.org/2000/svg">
<path fill-rule="evenodd" clip-rule="evenodd" d="M3 1.75C2.66848 1.75 2.35054 1.8817 2.11612 2.11612C1.8817 2.35054 1.75 2.66848 1.75 3V4C1.75 4.33152 1.8817 4.64946 2.11612 4.88388C2.35054 5.1183 2.66848 5.25 3 5.25H5C5.33152 5.25 5.64946 5.1183 5.88388 4.88388C6.1183 4.64946 6.25 4.33152 6.25 4V3C6.25 2.66848 6.1183 2.35054 5.88388 2.11612C5.64946 1.8817 5.33152 1.75 5 1.75H3ZM1.05546 1.05546C1.57118 0.539731 2.27065 0.25 3 0.25H5C5.72935 0.25 6.42882 0.539731 6.94454 1.05546C7.46027 1.57118 7.75 2.27065 7.75 3V4C7.75 4.72935 7.46027 5.42882 6.94454 5.94454C6.42882 6.46027 5.72935 6.75 5 6.75H3C2.27065 6.75 1.57118 6.46027 1.05546 5.94454C0.539731 5.42882 0.25 4.72935 0.25 4V3C0.25 2.27065 0.539731 1.57118 1.05546 1.05546Z" fill="#5E5E65"/>
<path fill-rule="evenodd" clip-rule="evenodd" d="M3 10.75C2.66848 10.75 2.35054 10.8817 2.11612 11.1161C1.8817 11.3505 1.75 11.6685 1.75 12V15C1.75 15.3315 1.8817 15.6495 2.11612 15.8839C2.35054 16.1183 2.66848 16.25 3 16.25H5C5.33152 16.25 5.64946 16.1183 5.88388 15.8839C6.1183 15.6495 6.25 15.3315 6.25 15V12C6.25 11.6685 6.1183 11.3505 5.88388 11.1161C5.64946 10.8817 5.33152 10.75 5 10.75H3ZM1.05546 10.0555C1.57118 9.53973 2.27065 9.25 3 9.25H5C5.72935 9.25 6.42882 9.53973 6.94454 10.0555C7.46027 10.5712 7.75 11.2707 7.75 12V15C7.75 15.7293 7.46027 16.4288 6.94454 16.9445C6.42882 17.4603 5.72935 17.75 5 17.75H3C2.27065 17.75 1.57118 17.4603 1.05546 16.9445C0.539731 16.4288 0.25 15.7293 0.25 15V12C0.25 11.2707 0.539731 10.5712 1.05546 10.0555Z" fill="#5E5E65"/>
<path fill-rule="evenodd" clip-rule="evenodd" d="M13 1.75C12.6685 1.75 12.3505 1.8817 12.1161 2.11612C11.8817 2.35054 11.75 2.66848 11.75 3V15C11.75 15.3315 11.8817 15.6495 12.1161 15.8839C12.3505 16.1183 12.6685 16.25 13 16.25H15C15.3315 16.25 15.6495 16.1183 15.8839 15.8839C16.1183 15.6495 16.25 15.3315 16.25 15V3C16.25 2.66848 16.1183 2.35054 15.8839 2.11612C15.6495 1.8817 15.3315 1.75 15 1.75H13ZM11.0555 1.05546C11.5712 0.539731 12.2707 0.25 13 0.25H15C15.7293 0.25 16.4288 0.539731 16.9445 1.05546C17.4603 1.57118 17.75 2.27065 17.75 3V15C17.75 15.7293 17.4603 16.4288 16.9445 16.9445C16.4288 17.4603 15.7293 17.75 15 17.75H13C12.2707 17.75 11.5712 17.4603 11.0555 16.9445C10.5397 16.4288 10.25 15.7293 10.25 15V3C10.25 2.27065 10.5397 1.57118 11.0555 1.05546Z" fill="#5E5E65"/>
</svg>
