<svg width="132" height="36" viewBox="0 0 132 36" fill="none" xmlns="http://www.w3.org/2000/svg">
<g clip-path="url(#clip0_1_2)">
<mask id="mask0_1_2" style="mask-type:luminance" maskUnits="userSpaceOnUse" x="0" y="0" width="132" height="36">
<path d="M132 0H0V36H132V0Z" fill="white"/>
</mask>
<g mask="url(#mask0_1_2)">
<path d="M35.8371 18C35.8371 27.9411 27.8147 36 17.9186 36C8.0224 36 0 27.9411 0 18C0 8.05887 8.0224 0 17.9186 0C27.8147 0 35.8371 8.05887 35.8371 18Z" fill="#FFE147"/>
<path fill-rule="evenodd" clip-rule="evenodd" d="M16.7545 27.3519C16.2831 26.5385 16.5573 25.4952 17.3671 25.0216L27.8978 18.8626L22.5844 16.8337L23.001 18.043C23.3075 18.9325 22.8381 19.9031 21.9527 20.2109C21.0673 20.5188 20.1011 20.0473 19.7946 19.1578L18.1906 14.5024C17.9751 13.877 18.1395 13.1829 18.6124 12.722C19.0851 12.2611 19.7808 12.1168 20.3966 12.352L32.4266 16.9454C33.0376 17.1788 33.4611 17.7442 33.5146 18.3989C33.568 19.0535 33.2425 19.6808 32.6775 20.0112L19.0743 27.9672C18.2646 28.4408 17.226 28.1653 16.7545 27.3519Z" fill="#111457"/>
<path fill-rule="evenodd" clip-rule="evenodd" d="M19.0697 8.62534C19.5411 9.43873 19.2669 10.482 18.4572 10.9556L7.92649 17.1147L13.2399 19.1435L12.8232 17.9342C12.5168 17.0448 12.9861 16.0741 13.8716 15.7663C14.757 15.4584 15.7232 15.9299 16.0296 16.8194L17.6337 21.4748C17.8491 22.1002 17.6847 22.7944 17.2119 23.2553C16.7391 23.7161 16.0435 23.8604 15.4276 23.6253L3.39772 19.0318C2.78652 18.7984 2.36324 18.233 2.30968 17.5784C2.25612 16.9237 2.58183 16.2964 3.14689 15.966L16.75 8.01004C17.5597 7.53646 18.5983 7.81192 19.0697 8.62534Z" fill="#111457"/>
<path d="M43.8783 7.00179C44.9911 7.00179 45.8915 6.09708 45.8915 4.97952C45.8915 3.86196 44.9911 2.98389 43.8783 2.98389C42.7925 2.98389 41.8655 3.86196 41.8655 4.97952C41.8655 6.09708 42.7925 7.00179 43.8783 7.00179ZM45.5737 21.2374V8.38542H42.2098V21.2374H45.5737Z" fill="#111457"/>
<path d="M57.5445 21.5567C61.4382 21.5567 63.6631 19.4014 64.9347 17.1929L61.7031 15.623C60.9616 17.0864 59.3722 18.204 57.5445 18.204C54.3395 18.204 52.0086 15.7294 52.0086 12.3767C52.0086 9.02404 54.3395 6.54946 57.5445 6.54946C59.3722 6.54946 60.9616 7.6936 61.7031 9.13048L64.9347 7.53397C63.6897 5.32546 61.4382 3.19678 57.5445 3.19678C52.2469 3.19678 48.1412 6.92197 48.1412 12.3767C48.1412 17.8315 52.2469 21.5567 57.5445 21.5567Z" fill="#111457"/>
<path d="M73.0273 21.5565C77.2654 21.5565 79.8083 18.4699 79.8083 14.7979C79.8083 11.1525 77.2654 8.06592 73.0273 8.06592C68.8159 8.06592 66.2729 11.1525 66.2729 14.7979C66.2729 18.4699 68.8159 21.5565 73.0273 21.5565ZM73.0273 18.5497C70.9348 18.5497 69.7695 16.8201 69.7695 14.7979C69.7695 12.8022 70.9348 11.0727 73.0273 11.0727C75.1199 11.0727 76.3118 12.8022 76.3118 14.7979C76.3118 16.8201 75.1199 18.5497 73.0273 18.5497Z" fill="#111457"/>
<path d="M94.4887 21.2372V3.48926H91.0982V10.035C90.0915 8.73116 88.6613 8.06594 87.1513 8.06594C83.8934 8.06594 81.4828 10.6203 81.4828 14.8245C81.4828 19.1085 83.9197 21.5565 87.1513 21.5565C88.6875 21.5565 90.0915 20.8647 91.0982 19.5874V21.2372H94.4887ZM88.1843 18.5497C86.2772 18.5497 84.9527 17.033 84.9527 14.8245C84.9527 12.5894 86.2772 11.0727 88.1843 11.0727C89.3234 11.0727 90.5418 11.6847 91.0982 12.5362V17.0862C90.5418 17.9377 89.3234 18.5497 88.1843 18.5497Z" fill="#111457"/>
<path d="M103.837 21.5565C105.824 21.5565 107.837 20.9445 109.108 19.7737L107.625 17.5918C106.804 18.39 105.294 18.869 104.208 18.869C102.036 18.869 100.738 17.512 100.526 15.8888H110.035V15.1438C110.035 10.9396 107.44 8.06592 103.625 8.06592C99.7317 8.06592 97.0033 11.0727 97.0033 14.7979C97.0033 18.9222 99.9434 21.5565 103.837 21.5565ZM106.778 13.6005H100.473C100.632 12.3233 101.533 10.7534 103.625 10.7534C105.85 10.7534 106.698 12.3765 106.778 13.6005Z" fill="#111457"/>
<path d="M115.829 21.2371V12.749C116.386 11.9242 117.869 11.2855 118.982 11.2855C119.352 11.2855 119.67 11.3122 119.909 11.3654V8.06592C118.319 8.06592 116.73 8.99721 115.829 10.1414V8.38521H112.465V21.2371H115.829Z" fill="#111457"/>
<path d="M131.89 21.2372V18.2837H125.931L131.785 10.8333V8.38525H121.454V11.3388H127.229L121.454 18.7094V21.2372H131.89Z" fill="#111457"/>
<path d="M64.4076 33.3298C65.9427 33.3298 66.62 32.5027 66.62 31.5466C66.62 29.4101 63.2928 30.0736 63.2928 28.9966C63.2928 28.5745 63.67 28.2816 64.2533 28.2816C64.8535 28.2816 65.4625 28.4884 65.9167 28.9449L66.4829 28.1955C65.9597 27.6786 65.2307 27.3857 64.3476 27.3857C63.0871 27.3857 62.2637 28.118 62.2637 29.0741C62.2637 31.1848 65.5909 30.4354 65.5909 31.6414C65.5909 32.029 65.2737 32.4337 64.4504 32.4337C63.653 32.4337 63.027 32.0548 62.6412 31.6327L62.075 32.4166C62.5895 32.9506 63.3528 33.3298 64.4076 33.3298Z" fill="#111457"/>
<path d="M69.6449 33.3295C70.9655 33.3295 71.7716 32.3302 71.7716 31.1413C71.7716 29.9439 70.9655 28.9619 69.6449 28.9619C68.3243 28.9619 67.5183 29.9439 67.5183 31.1413C67.5183 32.3302 68.3243 33.3295 69.6449 33.3295ZM69.6449 32.5282C68.8816 32.5282 68.4531 31.8823 68.4531 31.1413C68.4531 30.409 68.8816 29.763 69.6449 29.763C70.4166 29.763 70.8368 30.409 70.8368 31.1413C70.8368 31.8823 70.4166 32.5282 69.6449 32.5282Z" fill="#111457"/>
<path d="M73.8486 33.2262V27.4805H72.9482V33.2262H73.8486Z" fill="#111457"/>
<path d="M78.97 33.2262V29.0654H78.0696V31.9857C77.8639 32.2614 77.4694 32.5284 77.0148 32.5284C76.5003 32.5284 76.1745 32.3217 76.1745 31.6755V29.0654H75.274V32.0115C75.274 32.8557 75.7199 33.3297 76.6117 33.3297C77.2636 33.3297 77.7779 33.0021 78.0696 32.6748V33.2262H78.97Z" fill="#111457"/>
<path d="M81.6489 33.3295C82.0604 33.3295 82.3262 33.2089 82.4892 33.0622L82.2748 32.3731C82.2061 32.4508 82.0517 32.5282 81.8803 32.5282C81.6229 32.5282 81.4858 32.3128 81.4858 32.0287V29.8492H82.3262V29.0653H81.4858V27.9282H80.5854V29.0653H79.8994V29.8492H80.5854V32.2525C80.5854 32.9503 80.9456 33.3295 81.6489 33.3295Z" fill="#111457"/>
<path d="M83.8469 28.5574C84.1557 28.5574 84.4044 28.3076 84.4044 27.9975C84.4044 27.6873 84.1557 27.4375 83.8469 27.4375C83.5381 27.4375 83.2896 27.6873 83.2896 27.9975C83.2896 28.3076 83.5381 28.5574 83.8469 28.5574ZM84.2927 33.2263V29.0656H83.3923V33.2263H84.2927Z" fill="#111457"/>
<path d="M87.5961 33.3295C88.9167 33.3295 89.7227 32.3302 89.7227 31.1413C89.7227 29.9439 88.9167 28.9619 87.5961 28.9619C86.2755 28.9619 85.4694 29.9439 85.4694 31.1413C85.4694 32.3302 86.2755 33.3295 87.5961 33.3295ZM87.5961 32.5282C86.833 32.5282 86.4042 31.8823 86.4042 31.1413C86.4042 30.409 86.833 29.763 87.5961 29.763C88.368 29.763 88.7882 30.409 88.7882 31.1413C88.7882 31.8823 88.368 32.5282 87.5961 32.5282Z" fill="#111457"/>
<path d="M94.604 33.226V30.2971C94.604 29.4443 94.1581 28.9619 93.2664 28.9619C92.6145 28.9619 92.0742 29.2979 91.8001 29.6252V29.0653H90.8997V33.226H91.8001V30.3145C92.0142 30.0388 92.4087 29.763 92.8632 29.763C93.3691 29.763 93.7036 29.9698 93.7036 30.6244V33.226H94.604Z" fill="#111457"/>
<path d="M97.4542 33.3295C98.5687 33.3295 99.1777 32.7694 99.1777 32.0287C99.1777 30.3748 96.6739 30.9259 96.6739 30.1939C96.6739 29.9009 96.9653 29.6769 97.4369 29.6769C97.9601 29.6769 98.4146 29.9009 98.6631 30.1765L99.0406 29.5391C98.6718 29.2117 98.1402 28.9619 97.4369 28.9619C96.3907 28.9619 95.8075 29.5391 95.8075 30.2197C95.8075 31.822 98.3116 31.2361 98.3116 32.0545C98.3116 32.3818 98.0285 32.6059 97.4882 32.6059C96.9567 32.6059 96.3821 32.3302 96.0906 32.0287L95.6791 32.6746C96.1076 33.0967 96.7422 33.3295 97.4542 33.3295Z" fill="#111457"/>
<path d="M103.83 33.2262V31.0725H105.348C106.54 31.0725 107.208 30.2544 107.208 29.2809C107.208 28.2988 106.548 27.4805 105.348 27.4805H102.826V33.2262H103.83ZM105.21 30.1854H103.83V28.3677H105.21C105.776 28.3677 106.179 28.7295 106.179 29.2809C106.179 29.8236 105.776 30.1854 105.21 30.1854Z" fill="#111457"/>
<path d="M110.342 33.2262L112.031 29.0654H111.071L109.861 32.184L108.652 29.0654H107.683L109.373 33.2262H110.342Z" fill="#111457"/>
<path d="M114.106 33.3295C114.517 33.3295 114.783 33.2089 114.946 33.0622L114.732 32.3731C114.663 32.4508 114.509 32.5282 114.337 32.5282C114.08 32.5282 113.943 32.3128 113.943 32.0287V29.8492H114.783V29.0653H113.943V27.9282H113.042V29.0653H112.356V29.8492H113.042V32.2525C113.042 32.9503 113.402 33.3295 114.106 33.3295Z" fill="#111457"/>
<path d="M116.321 33.3212C116.647 33.3212 116.921 33.0368 116.921 32.7095C116.921 32.3909 116.647 32.1152 116.321 32.1152C115.995 32.1152 115.721 32.3909 115.721 32.7095C115.721 33.0368 115.995 33.3212 116.321 33.3212Z" fill="#111457"/>
<path d="M121.698 33.2262V32.3388H119.177V27.4805H118.174V33.2262H121.698Z" fill="#111457"/>
<path d="M123.763 33.3295C124.174 33.3295 124.44 33.2089 124.603 33.0622L124.389 32.3731C124.32 32.4508 124.166 32.5282 123.994 32.5282C123.737 32.5282 123.6 32.3128 123.6 32.0287V29.8492H124.44V29.0653H123.6V27.9282H122.699V29.0653H122.013V29.8492H122.699V32.2525C122.699 32.9503 123.059 33.3295 123.763 33.3295Z" fill="#111457"/>
<path d="M129.322 33.2262V27.4805H128.422V29.6427C128.096 29.1947 127.616 28.9621 127.093 28.9621C126.029 28.9621 125.258 29.7977 125.258 31.1415C125.258 32.5197 126.038 33.3297 127.093 33.3297C127.633 33.3297 128.105 33.0711 128.422 32.6577V33.2262H129.322ZM127.359 32.5284C126.638 32.5284 126.184 31.9512 126.184 31.1415C126.184 30.3405 126.638 29.7633 127.359 29.7633C127.779 29.7633 128.225 30.0132 128.422 30.3231V31.9686C128.225 32.2785 127.779 32.5284 127.359 32.5284Z" fill="#111457"/>
<path d="M131.218 33.3212C131.544 33.3212 131.818 33.0368 131.818 32.7095C131.818 32.3909 131.544 32.1152 131.218 32.1152C130.892 32.1152 130.618 32.3909 130.618 32.7095C130.618 33.0368 130.892 33.3212 131.218 33.3212Z" fill="#111457"/>
</g>
</g>
<defs>
<clipPath id="clip0_1_2">
<rect width="132" height="36" fill="white"/>
</clipPath>
</defs>
</svg>
