<svg width="36" height="36" viewBox="0 0 36 36" fill="none" xmlns="http://www.w3.org/2000/svg">
<g clip-path="url(#clip0_4552_3151)">
<path d="M35.7759 17.4595L26.5881 8.2717C26.3024 7.986 25.7969 7.986 25.5112 8.2717L23.5193 10.2636C23.2218 10.5611 23.2218 11.0434 23.5193 11.3409L30.1769 17.9978L23.5197 24.6558C23.2221 24.9533 23.2221 25.4355 23.5197 25.7331L25.5116 27.725C25.6544 27.8678 25.8483 27.9486 26.0502 27.9486C26.2517 27.9486 26.446 27.8678 26.5889 27.725L35.7759 18.5376C36.0734 18.2397 36.0734 17.757 35.7759 17.4595Z" fill="#62A92B"/>
<path d="M12.4782 24.6558L5.82168 17.9985L12.4793 11.3417C12.6222 11.1988 12.7025 11.0053 12.7025 10.803C12.7025 10.6011 12.6225 10.4072 12.4793 10.2644L10.4874 8.27247C10.3445 8.12962 10.1506 8.04924 9.94874 8.04924C9.74684 8.04924 9.55295 8.12962 9.4101 8.27247L0.221913 17.4595C-0.0755985 17.757 -0.0755985 18.2393 0.221913 18.5372L9.40971 27.7246C9.55257 27.8674 9.74646 27.9482 9.94836 27.9482C10.1503 27.9482 10.3442 27.8674 10.487 27.7246L12.4789 25.7327C12.7764 25.4356 12.7764 24.9533 12.4782 24.6558Z" fill="#62A92B"/>
<path d="M23.2236 5.18078C23.1268 5.00327 22.9638 4.87146 22.7703 4.81432L21.1555 4.33777C20.7524 4.21816 20.3281 4.44938 20.2092 4.8528L12.7128 30.2395C12.6556 30.4334 12.6777 30.6418 12.7741 30.8189C12.8705 30.9968 13.0339 31.1283 13.2274 31.1858L14.8422 31.6623C14.9142 31.6837 14.987 31.6939 15.0582 31.6939C15.387 31.6939 15.6906 31.4791 15.7885 31.1473L23.2849 5.76019C23.342 5.56629 23.3203 5.35792 23.2236 5.18078Z" fill="#62A92B"/>
</g>
<defs>
<clipPath id="clip0_4552_3151">
<rect width="36" height="36" fill="white"/>
</clipPath>
</defs>
</svg>
