<svg width="18" height="21" viewBox="0 0 18 21" fill="none" xmlns="http://www.w3.org/2000/svg">
<path fill-rule="evenodd" clip-rule="evenodd" d="M6.34835 6.34786C7.05161 5.6446 8.00544 5.24951 9 5.24951C9.99456 5.24951 10.9484 5.6446 11.6517 6.34786C12.3549 7.05112 12.75 8.00495 12.75 8.99951C12.75 9.99407 12.3549 10.9479 11.6517 11.6512C10.9484 12.3544 9.99456 12.7495 9 12.7495C8.00544 12.7495 7.05161 12.3544 6.34835 11.6512C5.64509 10.9479 5.25 9.99407 5.25 8.99951C5.25 8.00495 5.64509 7.05112 6.34835 6.34786ZM9 6.74951C8.40326 6.74951 7.83097 6.98656 7.40901 7.40852C6.98705 7.83048 6.75 8.40277 6.75 8.99951C6.75 9.59625 6.98705 10.1685 7.40901 10.5905C7.83097 11.0125 8.40326 11.2495 9 11.2495C9.59674 11.2495 10.169 11.0125 10.591 10.5905C11.0129 10.1685 11.25 9.59625 11.25 8.99951C11.25 8.40277 11.0129 7.83048 10.591 7.40852C10.169 6.98656 9.59674 6.74951 9 6.74951Z" fill="#5E5E65"/>
<path fill-rule="evenodd" clip-rule="evenodd" d="M9 1.75C7.56611 1.75 6.16441 2.1752 4.97216 2.97182C3.77991 3.76844 2.85066 4.90072 2.30191 6.22546C1.75317 7.5502 1.60957 9.00792 1.88928 10.4143C2.16899 11.8206 2.85942 13.1124 3.87327 14.1263C3.8733 14.1263 3.87325 14.1263 3.87327 14.1263L8.11707 18.3691C8.35145 18.6033 8.6692 18.7348 9.0005 18.7348C9.33181 18.7348 9.64956 18.6033 9.88394 18.3691L14.1267 14.1264C15.1406 13.1124 15.831 11.8206 16.1107 10.4143C16.3904 9.00791 16.2468 7.5502 15.6981 6.22546C15.1493 4.90072 14.2201 3.76844 13.0278 2.97182C11.8356 2.1752 10.4339 1.75 9 1.75ZM4.13881 1.72461C5.57773 0.763167 7.26944 0.25 9 0.25C10.7306 0.25 12.4223 0.763167 13.8612 1.72461C15.3001 2.68605 16.4216 4.05259 17.0839 5.65142C17.7462 7.25024 17.9195 9.00955 17.5819 10.7069C17.2443 12.4042 16.411 13.9633 15.1873 15.187L10.9443 19.43C10.4287 19.9452 9.72937 20.2348 9.0005 20.2348C8.27164 20.2348 7.57259 19.9454 7.05694 19.4303L2.81274 15.1871C1.58907 13.9634 0.755684 12.4042 0.4181 10.7069C0.0805156 9.00955 0.253821 7.25024 0.916101 5.65142C1.57838 4.05259 2.69989 2.68605 4.13881 1.72461Z" fill="#5E5E65"/>
</svg>
