<svg width="19" height="19" viewBox="0 0 19 19" fill="none" xmlns="http://www.w3.org/2000/svg">
<path fill-rule="evenodd" clip-rule="evenodd" d="M3 1.75C2.66848 1.75 2.35054 1.8817 2.11612 2.11612C1.8865 2.34573 1.75544 2.65547 1.75017 2.97962C1.98167 6.68818 3.5593 10.185 6.18716 12.8128C8.81502 15.4407 12.3118 17.0183 16.0204 17.2498C16.3445 17.2446 16.6543 17.1135 16.8839 16.8839C17.1183 16.6495 17.25 16.3315 17.25 16V12.5078L13.3145 10.9336L12.1431 12.8859C11.9423 13.2206 11.5183 13.3453 11.1683 13.1726C8.84867 12.0287 6.97133 10.1513 5.82735 7.83174C5.65471 7.48167 5.77943 7.0577 6.11413 6.85688L8.06643 5.6855L6.49223 1.75H3ZM1.05546 1.05546C1.57118 0.539731 2.27065 0.25 3 0.25H7C7.30668 0.25 7.58246 0.436713 7.69636 0.721457L9.69636 5.72146C9.83307 6.06324 9.70153 6.45373 9.38587 6.64312L7.49809 7.77579C8.39409 9.32121 9.67879 10.6059 11.2242 11.5019L12.3569 9.61413C12.5463 9.29847 12.9368 9.16693 13.2785 9.30364L18.2785 11.3036C18.5633 11.4175 18.75 11.6933 18.75 12V16C18.75 16.7293 18.4603 17.4288 17.9445 17.9445C17.4288 18.4603 16.7293 18.75 16 18.75C15.9848 18.75 15.9697 18.7495 15.9545 18.7486C11.8709 18.5005 8.01935 16.7664 5.1265 13.8735C2.23364 10.9806 0.499542 7.12908 0.251381 3.04549C0.250461 3.03035 0.25 3.01518 0.25 3C0.25 2.27065 0.539731 1.57118 1.05546 1.05546Z" fill="#5E5E65"/>
</svg>
