<svg width="56" height="54" viewBox="0 0 56 54" fill="none" xmlns="http://www.w3.org/2000/svg">
<g clip-path="url(#clip0_845_10)">
<path d="M46.0838 0H9.91621C4.43964 0 0 4.39082 0 9.80716V44.1928C0 49.6092 4.43964 54 9.91621 54H46.0838C51.5604 54 56 49.6092 56 44.1928V9.80716C56 4.39082 51.5604 0 46.0838 0Z" fill="#001E36"/>
<path d="M12.6104 37.8685V14.1266C12.6104 13.9545 12.6848 13.8668 12.8358 13.8668C13.2352 13.8668 13.6018 13.8668 14.1489 13.8484C14.696 13.83 15.2946 13.8236 15.9336 13.8116L17.9624 13.7738C18.6758 13.7615 19.3831 13.7554 20.0842 13.7554C21.9875 13.7554 23.5924 13.9906 24.8989 14.461C26.0735 14.8548 27.1448 15.5021 28.0351 16.356C28.79 17.0965 29.3732 17.9905 29.7443 18.976C30.0954 19.9357 30.2728 20.949 30.2685 21.9695C30.2685 23.9521 29.8052 25.587 28.8788 26.8742C27.9458 28.1668 26.6347 29.1458 25.1222 29.6793C23.5442 30.2615 21.7901 30.4585 19.862 30.4585C19.3149 30.4585 18.9232 30.4531 18.6977 30.4401C18.4723 30.4271 18.1342 30.4217 17.6834 30.4217V37.8339C17.6891 37.8724 17.687 37.9116 17.6773 37.9492C17.6676 37.9869 17.6505 38.0223 17.6269 38.0534C17.6033 38.0845 17.5737 38.1107 17.5398 38.1304C17.5059 38.1501 17.4684 38.163 17.4295 38.1683C17.4016 38.1726 17.3731 38.1726 17.3452 38.1683H12.873C12.6935 38.1651 12.6104 38.0666 12.6104 37.8685ZM17.6834 18.3256V26.069C18.0087 26.0942 18.3093 26.1065 18.585 26.1058H19.8248C20.7371 26.1027 21.6434 25.9596 22.5112 25.6815C23.2552 25.4639 23.9203 25.0394 24.4273 24.4586C24.9153 23.8894 25.1594 23.0957 25.1594 22.0777C25.1783 21.3589 24.9884 20.6498 24.6122 20.0345C24.218 19.4393 23.6479 18.9787 22.9796 18.7152C22.1084 18.3806 21.1781 18.2227 20.2439 18.251C19.6421 18.251 19.1099 18.2571 18.6474 18.2693C18.1849 18.2816 17.8654 18.3004 17.6888 18.3256H17.6834Z" fill="#31A8FF"/>
<path d="M44.7936 24.6608C44.0876 24.3017 43.3355 24.0392 42.558 23.8805C41.7015 23.6859 40.8258 23.5861 39.9471 23.5829C39.4719 23.5704 38.9974 23.6269 38.5388 23.7507C38.2465 23.8147 37.9867 23.9792 37.8056 24.2149C37.6832 24.4035 37.6182 24.6229 37.6185 24.847C37.6251 25.0642 37.7044 25.2732 37.8439 25.4411C38.0632 25.695 38.3314 25.9033 38.6329 26.0536C39.1682 26.3379 39.7199 26.5909 40.2852 26.8112C41.546 27.2289 42.7509 27.7965 43.8733 28.5016C44.6372 28.9793 45.2695 29.6367 45.7138 30.415C46.0883 31.1532 46.276 31.9702 46.261 32.7959C46.2831 33.8849 45.9686 34.9546 45.3593 35.8619C44.7066 36.7822 43.8004 37.4978 42.7484 37.9235C41.606 38.4199 40.1958 38.6681 38.518 38.6681C37.4526 38.6779 36.3891 38.5782 35.3446 38.3705C34.5214 38.2212 33.7201 37.9715 32.9591 37.627C32.8768 37.5852 32.8082 37.5211 32.7615 37.4421C32.7148 37.3631 32.6919 37.2726 32.6954 37.1811V33.1693C32.6906 33.13 32.6969 33.0901 32.7135 33.054C32.7301 33.0179 32.7564 32.9871 32.7895 32.9648C32.8217 32.9466 32.8588 32.9386 32.8958 32.9419C32.9328 32.9451 32.9679 32.9596 32.9963 32.9832C33.8959 33.5077 34.8728 33.89 35.8917 34.1163C36.7892 34.339 37.7098 34.4574 38.635 34.4691C39.5105 34.4691 40.1553 34.3576 40.5697 34.1347C40.7562 34.0502 40.914 33.914 41.0239 33.7427C41.1338 33.5714 41.1912 33.3722 41.1891 33.1693C41.1891 32.8468 41.0012 32.5369 40.6255 32.2397C40.2498 31.9424 39.4853 31.5853 38.3319 31.1683C37.1524 30.7623 36.034 30.1998 35.0076 29.4962C34.2734 28.9918 33.6686 28.3248 33.2414 27.5482C32.8712 26.8163 32.6836 26.0073 32.6943 25.1889C32.6911 24.2031 32.9646 23.2358 33.4844 22.3946C34.0749 21.4705 34.9231 20.7349 35.9267 20.2767C37.0283 19.732 38.4056 19.4596 40.0587 19.4596C41.027 19.4516 41.9945 19.5196 42.9519 19.6631C43.645 19.7512 44.3225 19.9333 44.9654 20.2042C45.0164 20.2187 45.0633 20.2447 45.1024 20.2802C45.1416 20.3157 45.1718 20.3597 45.1908 20.4087C45.2162 20.4993 45.2288 20.5929 45.228 20.6869V24.44C45.231 24.4834 45.2225 24.5268 45.2033 24.5659C45.1841 24.6051 45.1549 24.6385 45.1186 24.663C45.0679 24.6875 45.0122 24.7001 44.9558 24.6997C44.8994 24.6993 44.8439 24.686 44.7936 24.6608Z" fill="#31A8FF"/>
</g>
<defs>
<clipPath id="clip0_845_10">
<rect width="56" height="54" fill="white"/>
</clipPath>
</defs>
</svg>
