<svg width="27" height="27" viewBox="0 0 27 27" fill="none" xmlns="http://www.w3.org/2000/svg">
<path d="M26.32 13.16C26.32 20.43 20.43 26.32 13.16 26.32C5.89 26.32 0 20.43 0 13.16C0 5.89 5.89 0 13.16 0C20.43 0 26.32 5.89 26.32 13.16ZM20.35 13.16C20.35 9.19 17.13 5.97 13.16 5.97C9.19 5.97 5.97 9.19 5.97 13.16C5.97 17.13 9.19 20.35 13.16 20.35C17.13 20.35 20.35 17.13 20.35 13.16Z" fill="#E9E9EA"/>
<path d="M21.3197 13.0999C21.2297 13.0699 21.1797 12.9999 21.1397 12.9199C21.0397 12.7199 21.0197 12.5099 20.9997 12.2899C20.9797 12.0999 20.9097 11.9299 20.7497 11.8099C20.5997 11.6999 20.4197 11.6699 20.2397 11.6799C20.2197 11.6799 20.1897 11.6799 20.1597 11.6799C20.2597 11.6299 20.3497 11.5899 20.4297 11.5399C20.6897 11.3799 20.7897 11.1199 20.7197 10.8299C20.6797 10.6599 20.6397 10.4899 20.6097 10.3199C20.5897 10.1599 20.5997 10.0099 20.7297 9.88984V9.87984C20.6597 9.85984 20.5897 9.84984 20.5297 9.81984C20.3897 9.74984 20.3097 9.61984 20.2297 9.49984C20.1597 9.38984 20.0997 9.26984 20.0297 9.15984C19.8697 8.91984 19.6497 8.82984 19.3497 8.90984C19.2497 8.93984 19.1597 8.97984 19.0697 9.00984C19.1297 8.94984 19.1897 8.88984 19.2497 8.80984C19.3497 8.68984 19.4197 8.54984 19.4197 8.38984C19.4197 8.21984 19.3397 8.07984 19.2397 7.93984C19.1497 7.80984 19.0497 7.67984 18.9797 7.53984C18.9097 7.40984 18.8597 7.26984 18.9397 7.11984C18.9397 7.11984 18.9397 7.09984 18.9397 7.08984C18.7597 7.18984 18.5997 7.11984 18.4497 7.02984C18.3397 6.95984 18.2297 6.87984 18.1197 6.78984C17.9997 6.68984 17.8697 6.61984 17.7097 6.60984C17.5297 6.59984 17.3797 6.67984 17.2497 6.78984C17.1897 6.83984 17.1397 6.89984 17.0797 6.95984C17.1197 6.83984 17.1497 6.73984 17.1797 6.63984C17.2197 6.50984 17.2097 6.37984 17.1497 6.25984C17.0897 6.10984 16.9697 5.99984 16.8297 5.91984C16.6697 5.82984 16.5097 5.73984 16.3797 5.59984C16.2997 5.50984 16.2297 5.41984 16.2497 5.28984C16.2497 5.27984 16.2497 5.25984 16.2397 5.23984C16.1197 5.38984 15.9597 5.40984 15.7997 5.37984C15.6297 5.34984 15.4697 5.30984 15.2997 5.26984C15.0097 5.20984 14.7997 5.26984 14.6297 5.50984C14.5597 5.60984 14.5197 5.71984 14.4597 5.82984C14.4597 5.80984 14.4597 5.78984 14.4597 5.76984C14.4597 5.59984 14.4497 5.43984 14.3597 5.27984C14.2397 5.04984 14.0197 4.97984 13.7897 4.95984C13.6397 4.93984 13.4797 4.91984 13.3397 4.85984C13.2197 4.80984 13.1097 4.75984 13.0697 4.61984C13.0697 4.60984 13.0497 4.58984 13.0397 4.58984C13.0397 4.58984 13.0097 4.59984 13.0097 4.61984C12.9897 4.70984 12.9297 4.75984 12.8497 4.79984C12.6897 4.88984 12.5097 4.91984 12.3197 4.93984C12.1497 4.95984 11.9797 4.98984 11.8397 5.09984C11.6497 5.26984 11.6097 5.48984 11.6097 5.72984C11.6097 5.74984 11.6097 5.77984 11.6097 5.81984C11.5997 5.79984 11.5897 5.78984 11.5897 5.78984C11.5397 5.68984 11.4997 5.57984 11.4397 5.48984C11.3097 5.26984 11.0197 5.16984 10.7897 5.23984C10.6297 5.27984 10.4697 5.31984 10.3097 5.34984C10.1297 5.38984 9.95969 5.36984 9.81969 5.20984C9.81969 5.23984 9.81969 5.25984 9.81969 5.26984C9.81969 5.35984 9.78969 5.42984 9.73969 5.49984C9.64969 5.61984 9.53969 5.69984 9.41969 5.76984C9.30969 5.83984 9.19969 5.89984 9.09969 5.96984C8.96969 6.05984 8.88969 6.19984 8.86969 6.35984C8.84969 6.50984 8.87969 6.65984 8.93969 6.79984C8.95969 6.83984 8.96969 6.87984 8.98969 6.91984C8.91969 6.86984 8.85969 6.79984 8.78969 6.74984C8.54969 6.55984 8.30969 6.52984 8.04969 6.69984C7.90969 6.79984 7.76969 6.90984 7.62969 6.99984C7.50969 7.07984 7.37969 7.12984 7.22969 7.09984C7.19969 7.09984 7.15969 7.07984 7.12969 7.06984C7.12969 7.07984 7.12969 7.08984 7.12969 7.09984C7.19969 7.22984 7.16969 7.34984 7.11969 7.47984C7.04969 7.65984 6.92969 7.79984 6.81969 7.94984C6.72969 8.06984 6.66969 8.19984 6.65969 8.34984C6.65969 8.52984 6.72969 8.68984 6.83969 8.81984C6.88969 8.87984 6.93969 8.92984 6.99969 8.98984C6.97969 8.98984 6.95969 8.98984 6.93969 8.97984C6.84969 8.94984 6.75969 8.89984 6.65969 8.87984C6.37969 8.83984 6.19969 8.90984 6.02969 9.16984C5.93969 9.30984 5.85969 9.45984 5.76969 9.59984C5.69969 9.70984 5.60969 9.79984 5.46969 9.83984C5.42969 9.84984 5.37969 9.84984 5.32969 9.85984C5.34969 9.87984 5.36969 9.89984 5.38969 9.91984C5.47969 10.0299 5.48969 10.1599 5.46969 10.2899C5.43969 10.4799 5.38969 10.6599 5.34969 10.8399C5.31969 10.9999 5.31969 11.1599 5.40969 11.2999C5.48969 11.4399 5.60969 11.5299 5.74969 11.5899C5.79969 11.6099 5.84969 11.6299 5.89969 11.6599C5.78969 11.6699 5.68969 11.6799 5.57969 11.6899C5.25969 11.7499 5.11969 11.9799 5.06969 12.2299C5.03969 12.4099 5.01969 12.5899 4.97969 12.7599C4.94969 12.8999 4.88969 13.0299 4.73969 13.0899C4.71969 13.0899 4.70969 13.1099 4.67969 13.1299C4.79969 13.1499 4.87969 13.2199 4.91969 13.3099C4.96969 13.4399 5.00969 13.5699 5.03969 13.7099C5.06969 13.8399 5.06969 13.9699 5.09969 14.0999C5.13969 14.2599 5.22969 14.3899 5.37969 14.4699C5.52969 14.5599 5.69969 14.5699 5.86969 14.5599C5.88969 14.5599 5.90969 14.5599 5.92969 14.5599C5.82969 14.6099 5.71969 14.6499 5.62969 14.7199C5.35969 14.8999 5.30969 15.1299 5.34969 15.3899C5.37969 15.5699 5.43969 15.7499 5.46969 15.9399C5.49969 16.0999 5.46969 16.2599 5.34969 16.3799C5.34969 16.3799 5.34969 16.3899 5.33969 16.3999C5.35969 16.3999 5.36969 16.3999 5.37969 16.3999C5.43969 16.4099 5.50969 16.3999 5.54969 16.4399C5.61969 16.4799 5.68969 16.5399 5.73969 16.5999C5.83969 16.7399 5.91969 16.8799 6.00969 17.0299C6.20969 17.3699 6.49969 17.4599 6.85969 17.3099C6.90969 17.2899 6.95969 17.2699 7.00969 17.2499C6.96969 17.2899 6.92969 17.3399 6.88969 17.3799C6.75969 17.5299 6.65969 17.6899 6.66969 17.8899C6.66969 18.0299 6.72969 18.1499 6.80969 18.2599C6.88969 18.3699 6.97969 18.4899 7.04969 18.5999C7.12969 18.7199 7.18969 18.8499 7.17969 18.9999C7.17969 19.0499 7.14969 19.1099 7.13969 19.1699C7.15969 19.1699 7.17969 19.1499 7.20969 19.1499C7.27969 19.1499 7.34969 19.1199 7.40969 19.1399C7.53969 19.1699 7.65969 19.2399 7.76969 19.3199C7.86969 19.3999 7.96969 19.4799 8.06969 19.5499C8.20969 19.6499 8.37969 19.6799 8.54969 19.6399C8.71969 19.5999 8.83969 19.4899 8.95969 19.3599C8.96969 19.3499 8.98969 19.3299 8.99969 19.3199C8.99969 19.3399 8.99969 19.3499 8.99969 19.3499C8.96969 19.4499 8.92969 19.5399 8.89969 19.6399C8.86969 19.7699 8.87969 19.8899 8.92969 20.0199C8.98969 20.1699 9.09969 20.2699 9.22969 20.3399C9.38969 20.4299 9.55969 20.5199 9.68969 20.6599C9.77969 20.7499 9.84969 20.8499 9.83969 20.9899C9.83969 20.9999 9.83969 21.0099 9.84969 21.0399C9.90969 20.9599 9.96969 20.9099 10.0597 20.8999C10.2297 20.8799 10.3897 20.8999 10.5597 20.9399C10.6797 20.9699 10.8097 21.0099 10.9297 21.0199C11.0097 21.0199 11.0897 21.0199 11.1597 20.9899C11.3297 20.9399 11.4397 20.8099 11.5197 20.6599C11.5597 20.5899 11.5797 20.5199 11.6197 20.4499C11.6297 20.5599 11.6397 20.6699 11.6497 20.7699C11.7097 21.1099 11.9497 21.2599 12.2197 21.2899C12.3897 21.3099 12.5497 21.3299 12.7097 21.3799C12.8397 21.4299 12.9697 21.4799 13.0197 21.6299C13.0197 21.6399 13.0397 21.6599 13.0497 21.6599C13.0597 21.6599 13.0697 21.6399 13.0797 21.6299C13.0997 21.5299 13.1797 21.4799 13.2597 21.4299C13.4397 21.3299 13.6397 21.3099 13.8397 21.2899C14.0197 21.2699 14.1897 21.2099 14.3097 21.0599C14.4497 20.8899 14.4697 20.6999 14.4697 20.4899C14.4697 20.4699 14.4697 20.4499 14.4697 20.4299C14.5297 20.5799 14.5997 20.7199 14.7097 20.8399C14.8397 20.9799 14.9997 21.0399 15.1897 21.0099C15.3497 20.9799 15.5097 20.9299 15.6597 20.8999C15.8597 20.8599 16.0797 20.8299 16.2397 21.0299C16.2397 21.0099 16.2397 20.9899 16.2497 20.9799C16.2497 20.9299 16.2497 20.8799 16.2697 20.8399C16.3197 20.7599 16.3797 20.6699 16.4597 20.6099C16.5797 20.5099 16.7197 20.4299 16.8597 20.3499C17.1797 20.1599 17.2897 19.8699 17.1597 19.5199C17.1397 19.4599 17.1097 19.3899 17.0897 19.3299C17.1297 19.3699 17.1697 19.3999 17.1997 19.4299C17.3097 19.5299 17.4197 19.6199 17.5697 19.6499C17.7297 19.6799 17.8897 19.6499 18.0197 19.5499C18.1497 19.4599 18.2797 19.3499 18.4097 19.2599C18.5197 19.1799 18.6497 19.1199 18.7897 19.1299C18.8397 19.1299 18.8897 19.1599 18.9397 19.1699C18.9297 19.1099 18.9097 19.0599 18.8997 19.0099C18.8997 18.8599 18.9597 18.7399 19.0297 18.6199C19.1197 18.4799 19.2297 18.3499 19.3197 18.2099C19.4297 18.0399 19.4497 17.8499 19.3697 17.6599C19.3197 17.5399 19.2397 17.4299 19.1397 17.3399C19.1197 17.3199 19.0897 17.2999 19.0697 17.2799C19.1597 17.3099 19.2497 17.3399 19.3397 17.3699C19.4697 17.4099 19.6097 17.4199 19.7397 17.3699C19.9197 17.2999 20.0197 17.1599 20.1197 16.9999C20.1997 16.8599 20.2897 16.7299 20.3797 16.5999C20.4497 16.5099 20.5397 16.4399 20.6597 16.4299C20.6897 16.4299 20.7197 16.4299 20.7497 16.4299C20.7097 16.3599 20.6597 16.2999 20.6397 16.2399C20.5797 16.0399 20.6397 15.8399 20.6797 15.6399C20.6997 15.5499 20.7397 15.4499 20.7497 15.3599C20.7797 15.0799 20.6597 14.8699 20.4197 14.7299C20.3397 14.6799 20.2497 14.6499 20.1497 14.5999C20.1797 14.5999 20.1997 14.5999 20.2197 14.5999C20.3297 14.5999 20.4397 14.5999 20.5397 14.5699C20.8597 14.4999 20.9697 14.2699 21.0097 14.0299C21.0397 13.8499 21.0597 13.6799 21.0997 13.4999C21.1197 13.3999 21.1697 13.2999 21.2597 13.2299C21.2997 13.1999 21.3497 13.1799 21.3897 13.1599C21.3697 13.1499 21.3497 13.1299 21.3297 13.1199L21.3197 13.0999ZM19.9697 13.8899C19.9597 14.0599 19.9197 14.2299 19.8897 14.3899C19.8597 14.5499 19.8297 14.7099 19.7997 14.8699C19.7597 15.0299 19.7097 15.1899 19.6597 15.3399C19.5997 15.5299 19.5397 15.7199 19.4597 15.8899C19.3297 16.1799 19.1997 16.4699 19.0397 16.7399C18.7597 17.2399 18.4097 17.6999 18.0097 18.1199C17.6697 18.4699 17.2997 18.7899 16.8997 19.0699C16.5397 19.3099 16.1597 19.5299 15.7597 19.6899C15.4997 19.7899 15.2397 19.8899 14.9697 19.9799C14.7097 20.0599 14.4397 20.1299 14.1597 20.1699C13.6397 20.2599 13.1097 20.2899 12.5797 20.2499C12.4097 20.2399 12.2397 20.2199 12.0697 20.1999C11.8897 20.1699 11.7097 20.1399 11.5197 20.0999C11.3497 20.0599 11.1897 20.0199 11.0197 19.9699C10.8697 19.9299 10.7197 19.8799 10.5797 19.8199C10.3497 19.7199 10.1197 19.6299 9.89969 19.5099C9.64969 19.3799 9.40969 19.2399 9.17969 19.0899C8.55969 18.6799 8.02969 18.1799 7.56969 17.5999C7.22969 17.1699 6.94969 16.7199 6.71969 16.2199C6.61969 15.9999 6.51969 15.7799 6.43969 15.5499C6.35969 15.3099 6.28969 15.0599 6.21969 14.8099C6.13969 14.4999 6.08969 14.1899 6.05969 13.8799C6.01969 13.4299 5.99969 12.9899 6.04969 12.5399C6.06969 12.3399 6.08969 12.1399 6.11969 11.9399C6.14969 11.7699 6.17969 11.6099 6.21969 11.4399C6.25969 11.2799 6.29969 11.1199 6.34969 10.9599C6.41969 10.7399 6.49969 10.5199 6.58969 10.2999C6.74969 9.89984 6.94969 9.51984 7.18969 9.15984C7.43969 8.77984 7.71969 8.42984 8.02969 8.09984C8.03969 8.08984 8.05969 8.07984 8.07969 8.06984C8.07969 8.04984 8.08969 8.02984 8.10969 8.01984C8.57969 7.54984 9.10969 7.13984 9.69969 6.82984C9.96969 6.68984 10.2497 6.54984 10.5397 6.43984C10.7497 6.34984 10.9797 6.28984 11.2097 6.21984C11.3497 6.17984 11.4897 6.13984 11.6297 6.10984C11.8397 6.06984 12.0497 6.03984 12.2597 6.01984C12.5197 5.99984 12.7797 5.97984 13.0397 5.96984C13.2697 5.96984 13.5097 5.98984 13.7397 6.00984C13.9097 6.02984 14.0797 6.04984 14.2397 6.07984C14.3897 6.10984 14.5397 6.13984 14.6897 6.17984C14.8697 6.22984 15.0497 6.27984 15.2297 6.33984C15.4097 6.39984 15.5897 6.46984 15.7597 6.54984C16.1097 6.69984 16.4397 6.87984 16.7497 7.08984C17.1797 7.36984 17.5697 7.68984 17.9297 8.05984C18.2097 8.34984 18.4697 8.65984 18.6997 8.98984C18.9397 9.32984 19.1497 9.69984 19.3197 10.0799C19.4197 10.3099 19.5097 10.5399 19.5997 10.7699C19.6597 10.9499 19.7097 11.1299 19.7597 11.3099C19.7997 11.4599 19.8397 11.6099 19.8697 11.7599C19.8997 11.9199 19.9197 12.0799 19.9397 12.2399C19.9597 12.4999 19.9897 12.7699 19.9897 13.0299C19.9897 13.3099 19.9797 13.5899 19.9597 13.8699L19.9697 13.8899Z" fill="#151E2C"/>
<path d="M8.17031 8.39008C8.16031 8.49008 8.14031 8.58008 8.11031 8.68008C8.03031 8.91008 7.91031 9.13008 7.78031 9.34008C7.64031 9.57008 7.49031 9.80008 7.44031 10.0801C7.42031 10.2101 7.44031 10.3201 7.47031 10.4401C7.54031 10.6501 7.69031 10.8101 7.88031 10.9301C7.91031 10.9501 7.94031 10.9701 7.96031 10.9901C7.88031 10.9901 7.80031 10.9701 7.72031 10.9601C7.54031 10.9301 7.37031 10.9601 7.21031 11.0501C6.98031 11.1701 6.87031 11.3801 6.80031 11.6201C6.74031 11.8101 6.70031 12.0101 6.65031 12.2101C6.60031 12.4201 6.54031 12.6201 6.44031 12.8101C6.37031 12.9401 6.29031 13.0701 6.13031 13.1201C6.11031 13.1201 6.10031 13.1401 6.07031 13.1601C6.24031 13.1901 6.32031 13.3001 6.40031 13.4201C6.49031 13.5701 6.55031 13.7301 6.60031 13.9001C6.65031 14.0801 6.70031 14.2501 6.74031 14.4301C6.77031 14.5901 6.82031 14.7501 6.89031 14.9001C7.09031 15.2801 7.41031 15.4101 7.83031 15.3301C7.88031 15.3201 7.94031 15.3101 7.98031 15.3001C7.89031 15.3701 7.79031 15.4401 7.70031 15.5201C7.41031 15.7901 7.37031 16.1001 7.50031 16.4301C7.56031 16.5901 7.65031 16.7301 7.74031 16.8801C7.92031 17.1801 8.11031 17.4801 8.17031 17.8301C8.18031 17.9101 8.17031 18.0001 8.17031 18.0801C8.17031 18.1201 8.15031 18.1601 8.13031 18.2101C8.18031 18.1901 8.21031 18.1801 8.24031 18.1701C8.39031 18.1201 8.53031 18.1701 8.67031 18.2101C8.88031 18.2801 9.07031 18.3901 9.26031 18.5101C9.48031 18.6501 9.69031 18.8101 9.95031 18.8801C10.1003 18.9201 10.2503 18.9301 10.4003 18.8801C10.5803 18.8201 10.7203 18.7001 10.8303 18.5401C10.8703 18.4901 10.9003 18.4401 10.9403 18.3801C10.9403 18.3901 10.9403 18.4001 10.9403 18.4101C10.9303 18.5401 10.9003 18.6801 10.9103 18.8101C10.9103 19.0301 11.0103 19.2101 11.1703 19.3501C11.3303 19.4801 11.5103 19.5501 11.7103 19.6001C11.8703 19.6401 12.0303 19.6801 12.1903 19.7201C12.3803 19.7701 12.5603 19.8301 12.7303 19.9301C12.8603 20.0001 12.9803 20.0901 13.0203 20.2501C13.0203 20.2601 13.0403 20.2701 13.0503 20.2801C13.0503 20.2801 13.0703 20.2601 13.0803 20.2501C13.1103 20.1301 13.2003 20.0501 13.2903 19.9901C13.5303 19.8201 13.8103 19.7501 14.0903 19.6801C14.2703 19.6301 14.4603 19.5901 14.6403 19.5301C14.8303 19.4601 14.9803 19.3501 15.0803 19.1701C15.2003 18.9701 15.2103 18.7501 15.1703 18.5201C15.1703 18.4601 15.1503 18.4001 15.1403 18.3701C15.2203 18.4701 15.3103 18.6001 15.4103 18.7001C15.5603 18.8501 15.7503 18.9301 15.9703 18.9101C16.1903 18.8901 16.3803 18.8001 16.5603 18.6801C16.8503 18.4901 17.1503 18.2901 17.4903 18.1901C17.5903 18.1601 17.7003 18.1301 17.8103 18.1701C17.8503 18.1901 17.9003 18.2001 17.9403 18.2101C17.9203 18.1301 17.9003 18.0601 17.8903 17.9901C17.8903 17.8101 17.9403 17.6401 18.0203 17.4801C18.1503 17.2301 18.2903 17.0001 18.4203 16.7601C18.5203 16.5901 18.6003 16.4001 18.6303 16.2001C18.6603 15.9801 18.5903 15.7801 18.4403 15.6201C18.3303 15.5101 18.2103 15.4101 18.1003 15.3201C18.1403 15.3201 18.2003 15.3501 18.2703 15.3601C18.4303 15.3901 18.5803 15.3901 18.7403 15.3401C18.9703 15.2601 19.1203 15.0801 19.2203 14.8601C19.3103 14.6601 19.3403 14.4501 19.3903 14.2401C19.4403 14.0201 19.5003 13.8001 19.6003 13.5901C19.6603 13.4601 19.7303 13.3401 19.8503 13.2601C19.8903 13.2301 19.9403 13.2201 20.0003 13.1901C19.9803 13.1801 19.9603 13.1601 19.9403 13.1501C19.8403 13.1201 19.7803 13.0501 19.7203 12.9701C19.5303 12.6901 19.4503 12.3701 19.3803 12.0401C19.3303 11.8401 19.3003 11.6301 19.2003 11.4401C19.0503 11.1401 18.8103 10.9801 18.4703 10.9801C18.3703 10.9801 18.2703 11.0101 18.1703 11.0201C18.1503 11.0201 18.1303 11.0201 18.1103 11.0201C18.2503 10.9201 18.3903 10.8201 18.4903 10.6801C18.6103 10.5201 18.6603 10.3401 18.6403 10.1401C18.6103 9.93008 18.5203 9.73008 18.4103 9.55008C18.2203 9.26008 18.0403 8.96008 17.9403 8.63008C17.9003 8.50008 17.8703 8.37008 17.9203 8.24008C17.9303 8.21008 17.9403 8.17008 17.9603 8.13008C17.9403 8.13008 17.9303 8.13008 17.9203 8.13008C17.8503 8.15008 17.7903 8.18008 17.7203 8.18008C17.5203 8.18008 17.3403 8.11008 17.1603 8.02008C16.9503 7.90008 16.7403 7.78008 16.5403 7.65008C16.3803 7.55008 16.2103 7.46008 16.0303 7.44008C15.7403 7.40008 15.5003 7.51008 15.3203 7.73008C15.2503 7.81008 15.1903 7.90008 15.1203 8.01008C15.1803 7.84008 15.1903 7.69008 15.1903 7.53008C15.1903 7.37008 15.1303 7.22008 15.0303 7.10008C14.8803 6.91008 14.6703 6.82008 14.4503 6.76008C14.2503 6.70008 14.0603 6.66008 13.8603 6.61008C13.6803 6.56008 13.5003 6.50008 13.3403 6.40008C13.2203 6.33008 13.1103 6.25008 13.0703 6.10008C13.0703 6.09008 13.0503 6.08008 13.0403 6.08008C13.0403 6.08008 13.0203 6.10008 13.0103 6.11008C12.9903 6.21008 12.9203 6.28008 12.8503 6.34008C12.7303 6.43008 12.6003 6.50008 12.4603 6.55008C12.2803 6.61008 12.1103 6.66008 11.9303 6.71008C11.7603 6.75008 11.5903 6.78008 11.4303 6.85008C11.1003 6.99008 10.8803 7.27008 10.9103 7.67008C10.9103 7.79008 10.9403 7.90008 10.9503 8.00008C10.8903 7.92008 10.8303 7.82008 10.7503 7.74008C10.5703 7.53008 10.3303 7.43008 10.0503 7.47008C9.86031 7.50008 9.70031 7.58008 9.54031 7.68008C9.25031 7.87008 8.97031 8.06008 8.63031 8.17008C8.46031 8.22008 8.29031 8.25008 8.12031 8.14008C8.12031 8.16008 8.12031 8.18008 8.13031 8.20008C8.17031 8.28008 8.19031 8.36008 8.18031 8.45008L8.17031 8.39008ZM8.48031 10.6201C8.82031 9.97008 9.28031 9.41008 9.86031 8.95008C10.1503 8.72008 10.4703 8.51008 10.8103 8.35008C11.0303 8.25008 11.2703 8.16008 11.5003 8.08008C11.7103 8.01008 11.9303 7.96008 12.1403 7.91008C12.4803 7.85008 12.8303 7.82008 13.1703 7.84008C13.4203 7.85008 13.6703 7.87008 13.9103 7.91008C14.1303 7.95008 14.3403 8.01008 14.5503 8.07008C14.8603 8.16008 15.1503 8.29008 15.4303 8.44008C16.0003 8.75008 16.4903 9.15008 16.9103 9.64008C17.2403 10.0301 17.5203 10.4501 17.7103 10.9201C17.8103 11.1601 17.8903 11.4001 17.9703 11.6501C18.0303 11.8401 18.0803 12.0301 18.1103 12.2301C18.1503 12.5201 18.1703 12.8201 18.1903 13.0701C18.1703 13.3501 18.1703 13.5901 18.1403 13.8101C18.1103 14.0401 18.0603 14.2601 18.0103 14.4801C17.9403 14.7901 17.8203 15.0901 17.6903 15.3901C17.5103 15.7801 17.2803 16.1501 17.0103 16.4801C16.7003 16.8601 16.3503 17.1901 15.9503 17.4701C15.6603 17.6701 15.3603 17.8501 15.0303 17.9801C14.8303 18.0601 14.6303 18.1401 14.4303 18.2001C14.2503 18.2601 14.0503 18.2901 13.8703 18.3301C13.5503 18.3901 13.2303 18.4201 12.9103 18.4101C12.6603 18.4001 12.4103 18.3701 12.1603 18.3301C11.9703 18.3001 11.7803 18.2601 11.5903 18.2101C11.2303 18.1101 10.8803 17.9601 10.5503 17.7801C10.0003 17.4701 9.52031 17.0801 9.12031 16.6101C8.77031 16.2001 8.49031 15.7601 8.29031 15.2601C8.20031 15.0301 8.11031 14.7901 8.04031 14.5601C7.96031 14.2901 7.91031 14.0101 7.88031 13.7301C7.84031 13.4001 7.85031 13.0601 7.86031 12.7301C7.86031 12.5401 7.91031 12.3501 7.94031 12.1701C7.96031 12.0501 7.98031 11.9401 8.01031 11.8201C8.04031 11.6901 8.08031 11.5501 8.13031 11.4201C8.24031 11.1501 8.34031 10.8801 8.47031 10.6201H8.48031Z" fill="#BCBCBE"/>
<path d="M13.0201 18.29L13.9701 17H12.0801L13.0201 18.29Z" fill="#BCBCBE"/>
<path d="M13.0097 16.97L13.6297 15.79H12.3896L13.0097 16.97Z" fill="#BCBCBE"/>
<path d="M12.3896 15.7896L11.7396 14.5496H12.4596L12.0896 13.6996H12.0796L11.7196 14.5196L10.9796 13.0996L10.2396 14.5196L9.19965 13.1096L8.13965 14.5596H10.2296L9.57965 15.7996H11.1596L10.6196 17.0096H12.0996L11.2096 15.7996H12.4196L12.3896 15.7896ZM10.2696 14.5496H11.7096L11.1696 15.7596L10.2796 14.5496H10.2696Z" fill="#BCBCBE"/>
<path d="M16.8203 13.0994L15.7803 14.5094L15.0303 13.0794L14.2803 14.5194L13.9203 13.6994L13.8903 13.6894V13.7094L13.5303 14.5494H13.0103L13.6703 13.6894H13.0303L13.5303 12.8894L13.8103 13.5094L14.2503 12.9294L13.9203 13.6894H14.7003L14.2703 12.9094L14.2903 12.8894H14.2703L14.5703 12.2194L15.0203 13.0894L15.7503 11.6894L16.8003 13.1094L17.8603 11.6594H15.7703L16.3403 10.5594H14.9603L15.8103 9.18945H13.9003L14.9103 10.5594H13.6903L14.2603 11.6594H13.5703L13.8703 12.1994H13.2003L13.5103 12.8894H12.4403L12.9403 13.6994H12.3203L12.9803 14.5594H12.4303L12.9803 15.7994L13.5303 14.5594H14.2503L13.6003 15.7994H14.8303L13.9403 17.0094H15.3903L14.8403 15.7994H16.4203L15.7703 14.5594H17.8503L16.7903 13.1194L16.8203 13.0994ZM14.9603 10.5794L15.7403 11.6394H14.3003L14.9603 10.5794ZM14.3003 11.6494L14.5803 12.1794H13.9803L14.3103 11.6494H14.3003ZM13.9303 12.2494L14.2703 12.8694H13.5403L13.9303 12.2494ZM14.8603 15.7794L14.3003 14.5394H15.7703L14.8603 15.7794Z" fill="#BCBCBE"/>
<path d="M13.9296 9.18016L12.9896 7.91016L12.0596 9.18016H13.0096H13.9296Z" fill="#BCBCBE"/>
<path d="M10.9799 13.0894L11.4299 12.2294L11.7299 12.9094L12.1799 13.4794L12.4499 12.8894H11.7399L12.0799 12.2594L12.4599 12.8694L12.7599 12.1994H12.1099L12.3999 11.6594H11.7199L12.2899 10.5594H11.0499L12.0599 9.18945H10.1799L11.0299 10.5594H9.64988L10.2199 11.6594H8.12988L9.18988 13.0994L10.2299 11.6794L10.9699 13.0994L10.9799 13.0894ZM12.0499 12.1894H11.4499L11.7199 11.6594L12.0499 12.1894ZM11.0499 10.5694L11.7199 11.6494H10.2599L11.0499 10.5694Z" fill="#BCBCBE"/>
<path d="M12.29 10.5497H13H13.73L13.01 9.17969L12.29 10.5497Z" fill="#BCBCBE"/>
<path d="M12.4102 11.6498H13.6002L13.0002 10.5498L12.4102 11.6498Z" fill="#BCBCBE"/>
<path d="M11.2998 13.6904H12.0698L11.7198 12.9004L11.2998 13.6904Z" fill="#BCBCBE"/>
<path d="M12.7598 12.1897H13.2198L12.9898 11.6797L12.7598 12.1897Z" fill="#BCBCBE"/>
<path d="M12.4502 12.8804H12.4702L12.4602 12.8604L12.4502 12.8804Z" fill="#BCBCBE"/>
<path d="M13.6904 13.6898H13.9104L13.8204 13.5098L13.6904 13.6898Z" fill="#BCBCBE"/>
<path d="M12.0898 13.6897H12.3498L12.1798 13.4697L12.0898 13.6897Z" fill="#BCBCBE"/>
</svg>
