<svg width="19" height="20" viewBox="0 0 19 20" fill="none" xmlns="http://www.w3.org/2000/svg">
<path fill-rule="evenodd" clip-rule="evenodd" d="M4.82505 2.22703C6.09092 0.961159 7.80781 0.25 9.59802 0.25C11.3882 0.25 13.1051 0.961159 14.371 2.22703C15.6369 3.4929 16.348 5.20979 16.348 7C16.348 8.79021 15.6369 10.5071 14.371 11.773C13.1051 13.0388 11.3882 13.75 9.59802 13.75C7.80781 13.75 6.09092 13.0388 4.82505 11.773C3.55918 10.5071 2.84802 8.79021 2.84802 7C2.84802 5.20979 3.55918 3.4929 4.82505 2.22703ZM9.59802 1.75C8.20564 1.75 6.87028 2.30312 5.88571 3.28769C4.90115 4.27226 4.34802 5.60761 4.34802 7C4.34802 8.39239 4.90115 9.72774 5.88571 10.7123C6.87028 11.6969 8.20564 12.25 9.59802 12.25C10.9904 12.25 12.3258 11.6969 13.3103 10.7123C14.2949 9.72774 14.848 8.39239 14.848 7C14.848 5.60761 14.2949 4.27226 13.3103 3.28769C12.3258 2.30312 10.9904 1.75 9.59802 1.75Z" fill="#5E5E65"/>
<path fill-rule="evenodd" clip-rule="evenodd" d="M14.419 9.35048C14.7777 9.14337 15.2364 9.26628 15.4435 9.625L18.8435 15.514C18.9818 15.7535 18.9771 16.0498 18.8311 16.2847C18.6852 16.5197 18.4218 16.6552 18.1458 16.6374L15.0468 16.4376L13.6704 19.2223C13.5478 19.4703 13.2987 19.6307 13.0222 19.6396C12.7457 19.6485 12.4868 19.5045 12.3485 19.2649L8.94848 13.375C8.7414 13.0162 8.86434 12.5575 9.22307 12.3505C9.58181 12.1434 10.0405 12.2663 10.2476 12.625L12.9468 17.301L13.9237 15.3247C14.0578 15.0532 14.3421 14.8891 14.6443 14.9086L16.8438 15.0504L14.1445 10.375C13.9374 10.0163 14.0603 9.55759 14.419 9.35048Z" fill="#5E5E65"/>
<path fill-rule="evenodd" clip-rule="evenodd" d="M4.77495 9.35045C5.13369 9.55753 5.25663 10.0162 5.04955 10.375L2.35031 15.051L4.54953 14.9086C4.85175 14.889 5.13608 15.0531 5.27031 15.3246L6.24718 17.3003L8.94648 12.625C9.15359 12.2663 9.61228 12.1434 9.971 12.3505C10.3297 12.5576 10.4526 13.0163 10.2455 13.375L6.84552 19.264C6.70722 19.5035 6.4483 19.6475 6.17185 19.6386C5.89539 19.6297 5.64628 19.4694 5.52369 19.2214L4.14736 16.4378L1.04847 16.6384C0.772424 16.6563 0.508951 16.5208 0.362959 16.2858C0.216967 16.0509 0.21216 15.7546 0.350453 15.515L3.75045 9.62505C3.95753 9.26631 4.41622 9.14337 4.77495 9.35045Z" fill="#5E5E65"/>
</svg>
