<svg width="20" height="16" viewBox="0 0 20 16" fill="none" xmlns="http://www.w3.org/2000/svg">
<path fill-rule="evenodd" clip-rule="evenodd" d="M5.5 14.75C4.05183 14.75 2.62916 15.1312 1.375 15.8553C1.01628 16.0624 0.557591 15.9395 0.350484 15.5808C0.143377 15.2221 0.266284 14.7634 0.625003 14.5563C2.10719 13.7005 3.78852 13.25 5.5 13.25C7.06871 13.25 8.61209 13.6285 10 14.3506C11.3879 13.6285 12.9313 13.25 14.5 13.25C16.2115 13.25 17.8928 13.7005 19.375 14.5563C19.7337 14.7634 19.8566 15.2221 19.6495 15.5808C19.4424 15.9395 18.9837 16.0624 18.625 15.8553C17.3708 15.1312 15.9482 14.75 14.5 14.75C13.0518 14.75 11.6292 15.1312 10.375 15.8553C10.143 15.9893 9.85705 15.9893 9.625 15.8553C8.37084 15.1312 6.94818 14.75 5.5 14.75Z" fill="#5E5E65"/>
<path fill-rule="evenodd" clip-rule="evenodd" d="M5.5 1.75C4.05183 1.75 2.62916 2.1312 1.375 2.85529C1.01628 3.0624 0.557591 2.93949 0.350484 2.58077C0.143377 2.22205 0.266284 1.76336 0.625003 1.55625C2.10719 0.700511 3.78852 0.25 5.5 0.25C7.06871 0.25 8.61209 0.628482 10 1.35058C11.3879 0.628482 12.9313 0.25 14.5 0.25C16.2115 0.25 17.8928 0.700511 19.375 1.55625C19.7337 1.76336 19.8566 2.22205 19.6495 2.58077C19.4424 2.93949 18.9837 3.0624 18.625 2.85529C17.3708 2.1312 15.9482 1.75 14.5 1.75C13.0518 1.75 11.6292 2.1312 10.375 2.85529C10.143 2.98926 9.85705 2.98926 9.625 2.85529C8.37084 2.1312 6.94818 1.75 5.5 1.75Z" fill="#5E5E65"/>
<path fill-rule="evenodd" clip-rule="evenodd" d="M1 1.45577C1.41421 1.45577 1.75 1.79156 1.75 2.20577V15.2058C1.75 15.62 1.41421 15.9558 1 15.9558C0.585786 15.9558 0.25 15.62 0.25 15.2058V2.20577C0.25 1.79156 0.585786 1.45577 1 1.45577Z" fill="#5E5E65"/>
<path fill-rule="evenodd" clip-rule="evenodd" d="M10 1.45577C10.4142 1.45577 10.75 1.79156 10.75 2.20577V15.2058C10.75 15.62 10.4142 15.9558 10 15.9558C9.58579 15.9558 9.25 15.62 9.25 15.2058V2.20577C9.25 1.79156 9.58579 1.45577 10 1.45577Z" fill="#5E5E65"/>
<path fill-rule="evenodd" clip-rule="evenodd" d="M19 1.45577C19.4142 1.45577 19.75 1.79156 19.75 2.20577V15.2058C19.75 15.62 19.4142 15.9558 19 15.9558C18.5858 15.9558 18.25 15.62 18.25 15.2058V2.20577C18.25 1.79156 18.5858 1.45577 19 1.45577Z" fill="#5E5E65"/>
</svg>
