<svg width="20" height="15" viewBox="0 0 20 15" fill="none" xmlns="http://www.w3.org/2000/svg">
<path fill-rule="evenodd" clip-rule="evenodd" d="M0.25 14C0.25 13.5858 0.585786 13.25 1 13.25H19C19.4142 13.25 19.75 13.5858 19.75 14C19.75 14.4142 19.4142 14.75 19 14.75H1C0.585786 14.75 0.25 14.4142 0.25 14Z" fill="#5E5E65"/>
<path fill-rule="evenodd" clip-rule="evenodd" d="M4 1.75C3.9337 1.75 3.87011 1.77634 3.82322 1.82322C3.77634 1.87011 3.75 1.9337 3.75 2V10C3.75 10.0663 3.77634 10.1299 3.82322 10.1768C3.87011 10.2237 3.9337 10.25 4 10.25H16C16.0663 10.25 16.1299 10.2237 16.1768 10.1768C16.2237 10.1299 16.25 10.0663 16.25 10V2C16.25 1.93369 16.2237 1.87011 16.1768 1.82322C16.1299 1.77634 16.0663 1.75 16 1.75H4ZM2.76256 0.762563C3.09075 0.434375 3.53587 0.25 4 0.25H16C16.4641 0.25 16.9092 0.434375 17.2374 0.762563C17.5656 1.09075 17.75 1.53587 17.75 2V10C17.75 10.4641 17.5656 10.9092 17.2374 11.2374C16.9092 11.5656 16.4641 11.75 16 11.75H4C3.53587 11.75 3.09075 11.5656 2.76256 11.2374C2.43438 10.9092 2.25 10.4641 2.25 10V2C2.25 1.53587 2.43438 1.09075 2.76256 0.762563Z" fill="#5E5E65"/>
</svg>
