<svg width="20" height="18" viewBox="0 0 20 18" fill="none" xmlns="http://www.w3.org/2000/svg">
<path fill-rule="evenodd" clip-rule="evenodd" d="M6.45081 1.77398C5.8674 1.71174 5.27743 1.77098 4.71804 1.94796C4.15865 2.12493 3.64196 2.41582 3.20051 2.80229C2.75906 3.18876 2.40242 3.66245 2.15303 4.19353C1.90365 4.72461 1.76692 5.30157 1.75147 5.88809C1.73602 6.4746 1.84218 7.05796 2.06326 7.60144C2.28434 8.14491 2.61556 8.63672 3.03605 9.0459L3.04078 9.0505L3.04076 9.05052L10.013 15.9558L16.9852 9.05052C17.0036 9.03229 17.0228 9.01521 17.0425 8.99927C17.4336 8.60074 17.7426 8.12884 17.9515 7.6104C18.17 7.06788 18.2742 6.48609 18.2576 5.90144C18.241 5.31679 18.1038 4.74187 17.8548 4.21265C17.6058 3.68343 17.2502 3.21132 16.8103 2.82585C16.3704 2.44038 15.8556 2.14986 15.2983 1.97247C14.741 1.79508 14.153 1.73464 13.5712 1.79493C12.9895 1.85522 12.4264 2.03495 11.9173 2.32285C11.4082 2.61076 10.9639 3.00066 10.6124 3.46814C10.4703 3.65715 10.2474 3.76806 10.0109 3.7674C9.77443 3.76675 9.55211 3.65459 9.41105 3.4648C9.06106 2.9939 8.61736 2.60056 8.10789 2.30957C7.59842 2.01857 7.03422 1.83621 6.45081 1.77398ZM17.9806 10.1758L10.5408 17.5443C10.2485 17.8338 9.77753 17.8338 9.48523 17.5443L1.98995 10.1209C1.98913 10.1201 1.98831 10.1193 1.98749 10.1185C1.41976 9.56541 0.972504 8.90088 0.673826 8.16665C0.374717 7.43136 0.231092 6.64211 0.251994 5.84859C0.272896 5.05507 0.457873 4.27447 0.795277 3.55596C1.13268 2.83744 1.6152 2.19656 2.21246 1.67369C2.80971 1.15081 3.50876 0.757261 4.26558 0.517821C5.0224 0.278382 5.8206 0.19824 6.60992 0.28244C7.39924 0.36664 8.16257 0.613359 8.85185 1.00706C9.27671 1.24973 9.66776 1.545 10.0161 1.88502C10.3647 1.54864 10.7552 1.2568 11.1789 1.01717C11.8677 0.627646 12.6295 0.384491 13.4166 0.302922C14.2037 0.221354 14.9992 0.303127 15.7532 0.543125C16.5073 0.783123 17.2037 1.17618 17.7988 1.69769C18.394 2.21921 18.8751 2.85795 19.212 3.57395C19.549 4.28995 19.7345 5.06779 19.757 5.85879C19.7795 6.64979 19.6385 7.43692 19.3428 8.17091C19.0471 8.90491 18.6031 9.56997 18.0385 10.1245C18.0199 10.1428 18.0006 10.1599 17.9806 10.1758Z" fill="#5E5E65"/>
<path fill-rule="evenodd" clip-rule="evenodd" d="M10.5432 2.48108C10.8361 2.77397 10.8361 3.24884 10.5432 3.54174L7.25032 6.83466C7.25029 6.83468 7.25035 6.83463 7.25032 6.83466C7.2035 6.88153 7.17712 6.94515 7.17712 7.01141C7.17712 7.07766 7.20342 7.1412 7.25024 7.18808C7.25027 7.1881 7.25021 7.18805 7.25024 7.18808L7.79324 7.73108C8.19035 8.12818 8.83547 8.12818 9.23258 7.73108L10.2326 6.73108C10.97 5.99369 11.9701 5.57943 13.0129 5.57943C14.0557 5.57943 15.0558 5.99369 15.7932 6.73107L18.0432 8.98108C18.3361 9.27397 18.3361 9.74884 18.0432 10.0417C17.7503 10.3346 17.2755 10.3346 16.9826 10.0417L14.7326 7.79174C14.2765 7.33566 13.6579 7.07943 13.0129 7.07943C12.3679 7.07943 11.7493 7.33566 11.2932 7.79174C11.2932 7.79174 11.2932 7.79174 11.2932 7.79174L10.2932 8.79174C9.31035 9.77463 7.71547 9.77463 6.73258 8.79174L6.18958 8.24874C5.86151 7.92056 5.67712 7.47544 5.67712 7.01141C5.67712 6.54737 5.86143 6.10233 6.1895 5.77416L9.48258 2.48108C9.77547 2.18818 10.2503 2.18818 10.5432 2.48108Z" fill="#5E5E65"/>
<path fill-rule="evenodd" clip-rule="evenodd" d="M9.98261 11.9811C10.2755 11.6882 10.7504 11.6882 11.0433 11.9811L13.0433 13.9811C13.3362 14.274 13.3362 14.7488 13.0433 15.0417C12.7504 15.3346 12.2755 15.3346 11.9826 15.0417L9.98261 13.0417C9.68972 12.7488 9.68972 12.274 9.98261 11.9811Z" fill="#5E5E65"/>
<path fill-rule="evenodd" clip-rule="evenodd" d="M12.4826 9.48108C12.7755 9.18818 13.2504 9.18818 13.5433 9.48108L15.5433 11.4811C15.8362 11.774 15.8362 12.2488 15.5433 12.5417C15.2504 12.8346 14.7755 12.8346 14.4826 12.5417L12.4826 10.5417C12.1897 10.2488 12.1897 9.77397 12.4826 9.48108Z" fill="#5E5E65"/>
</svg>
