<svg width="73" height="54" viewBox="0 0 73 54" fill="none" xmlns="http://www.w3.org/2000/svg">
<path fill-rule="evenodd" clip-rule="evenodd" d="M62.8427 31.0076C60.2882 31.0193 58.0782 31.629 56.2247 32.526C55.5415 31.1893 54.8583 30.0227 54.7395 29.1492C54.6088 28.1349 54.4544 27.5194 54.6088 26.3058C54.7633 25.0981 55.4762 23.3804 55.4762 23.2397C55.4643 23.1107 55.3217 22.4952 53.8484 22.4776C52.381 22.4658 51.1097 22.759 50.9671 23.14C50.8246 23.5211 50.5394 24.3946 50.3552 25.2916C50.0998 26.6165 47.4205 31.3007 45.8937 33.763C45.3947 32.8074 44.967 31.9632 44.8838 31.289C44.7531 30.2748 44.5986 29.6592 44.7531 28.4457C44.9076 27.238 45.6205 25.5202 45.6205 25.3795C45.6086 25.2506 45.466 24.635 43.9927 24.6174C42.5253 24.6057 41.254 24.8988 41.1114 25.2799C40.9688 25.6609 40.8144 26.5579 40.4995 27.4314C40.2025 28.305 36.638 36.1256 35.7113 38.1658C35.242 39.2093 34.8261 40.0359 34.5291 40.5987C34.232 41.1615 34.5172 40.6398 34.4875 40.6984C34.232 41.1791 34.0895 41.4429 34.0895 41.4429V41.4547C33.8875 41.8064 33.6736 42.1464 33.5785 42.1464C33.5073 42.1464 33.3647 41.2026 33.6082 39.9069C34.137 37.1926 35.4202 32.954 35.4024 32.8015C35.4024 32.7312 35.6459 31.9866 34.5766 31.6056C33.537 31.2245 33.1627 31.8577 33.0795 31.8577C32.9964 31.8577 32.9251 32.0804 32.9251 32.0804C32.9251 32.0804 34.0776 27.3083 30.7151 27.3083C28.6061 27.3083 25.6952 29.5713 24.2575 31.6407C23.3426 32.1332 21.4059 33.1767 19.3504 34.2848C18.5663 34.7069 17.7524 35.1583 16.986 35.5628L16.8316 35.3928C12.7503 31.119 5.2055 28.0822 5.52036 22.3134C5.63323 20.2146 6.37582 14.6862 20.0099 7.9912C31.1725 2.50384 40.1134 4.01052 41.6699 7.35804C43.8798 12.1419 36.8935 21.0354 25.2853 22.3134C20.8653 22.8059 18.5425 21.1175 17.9544 20.4843C17.3425 19.8218 17.2533 19.7925 17.0276 19.9215C16.6593 20.1208 16.885 20.7071 17.0276 21.0588C17.3722 21.9441 18.7979 23.5211 21.2218 24.3067C23.3486 24.9985 28.5348 25.3737 34.8083 22.9818C41.8362 20.2967 47.3254 12.8337 45.7155 6.60177C44.0759 0.264348 33.4122 -1.82272 23.3307 1.7124C17.3306 3.82292 10.8255 7.11767 6.15008 11.4384C0.589528 16.5564 -0.295644 21.0295 0.0726824 22.8879C1.36777 29.5185 10.6235 33.8333 14.3305 37.0284C14.1463 37.1281 13.9741 37.2278 13.8196 37.3098C11.9661 38.2127 4.90846 41.8533 3.13811 45.7109C1.14202 50.0726 3.45297 53.2149 4.99163 53.6371C9.75611 54.9444 14.6335 52.5935 17.2712 48.7242C19.897 44.8549 19.5821 39.8307 18.3702 37.5385L18.3286 37.4564L19.7841 36.6122C20.7227 36.0611 21.6495 35.5569 22.4634 35.1231C22.006 36.3484 21.6792 37.7964 21.5069 39.9069C21.3049 42.3809 22.3327 45.5936 23.6872 46.8599C24.2872 47.411 25.0001 47.4227 25.4397 47.4227C27.0081 47.4227 27.721 46.1447 28.5051 44.6087C29.4735 42.7386 30.329 40.5694 30.329 40.5694C30.329 40.5694 29.2596 46.4378 32.1825 46.4378C33.2518 46.4378 34.3211 45.0719 34.8083 44.3684V44.3801C34.8083 44.3801 34.838 44.339 34.8915 44.2394C34.9509 44.1514 35.0103 44.0635 35.0637 43.9697V43.9404C35.4915 43.2076 36.4479 41.5367 37.8737 38.7638C39.7153 35.1876 41.4797 30.7145 41.4797 30.7145C41.4797 30.7145 41.652 31.8108 42.1808 33.6106C42.4956 34.6775 43.1788 35.8501 43.7075 36.9874C43.2798 37.5795 43.0243 37.9137 43.0243 37.9137L43.0362 37.9254C42.6917 38.3768 42.3115 38.8517 41.9075 39.3324C40.452 41.0501 38.7114 43.0024 38.4856 43.5652C38.2123 44.2276 38.2717 44.7201 38.8005 45.1129C39.1866 45.3943 39.8698 45.4529 40.5946 45.3943C41.9075 45.3122 42.8164 44.9839 43.2739 44.7905C43.9867 44.5384 44.8006 44.1573 45.5848 43.5945C47.0106 42.551 47.8779 41.0736 47.7948 39.1038C47.7532 38.0192 47.3967 36.9522 46.9512 35.938C47.0819 35.7563 47.2066 35.5745 47.3373 35.3752C49.5889 32.1273 51.3295 28.5512 51.3295 28.5512C51.3295 28.5512 51.5018 29.6475 52.0305 31.4473C52.3038 32.3618 52.8444 33.3585 53.3256 34.3434C51.2166 36.0435 49.8919 38.0133 49.4344 39.309C48.5908 41.7009 49.2503 42.7855 50.4919 43.0376C51.0503 43.1489 51.8464 42.8968 52.4464 42.6448C53.189 42.4044 54.086 41.9999 54.9118 41.3902C56.3376 40.3466 57.704 38.8986 57.6327 36.9464C57.5911 36.0435 57.3475 35.1583 57.0208 34.3141C58.8149 33.5812 61.1436 33.1591 64.0903 33.5109C70.435 34.2437 71.6885 38.154 71.4509 39.7838C71.2073 41.4136 69.8825 42.3165 69.4429 42.5979C69.0033 42.8675 68.8607 42.9613 68.9023 43.1607C68.9617 43.4538 69.1577 43.4421 69.5439 43.3834C70.0726 43.3014 72.8826 42.0468 72.9955 39.0334C73.1677 35.1876 69.4429 30.9666 62.8427 31.0076ZM13.9087 47.2879C11.8116 49.5509 8.85906 50.4126 7.60556 49.6798C6.25107 48.906 6.7798 45.5702 9.35808 43.1665C10.9264 41.7009 12.9641 40.3525 14.3067 39.52C14.6038 39.3383 15.0612 39.0686 15.6018 38.7462C15.685 38.6875 15.7444 38.6641 15.7444 38.6641C15.8454 38.6055 15.9583 38.5351 16.0711 38.4648C17.0276 41.9002 16.1187 44.9077 13.9087 47.2879ZM29.2359 37.005C28.5111 38.7637 26.9665 43.2838 26.0397 43.0258C25.2437 42.8148 24.7565 39.3969 25.8853 36.0201C26.4556 34.3199 27.6675 32.2915 28.3804 31.5059C29.5329 30.2396 30.7923 29.8175 31.1012 30.3393C31.4755 31.0076 29.6933 35.9028 29.2359 37.005ZM41.8837 42.9672C41.5689 43.1196 41.2837 43.2369 41.1589 43.1489C41.058 43.0903 41.2896 42.8793 41.2896 42.8793C41.2896 42.8793 42.8699 41.2026 43.4996 40.4287C43.8561 39.9773 44.2838 39.4555 44.7412 38.8693V39.0393C44.7353 41.0677 42.7689 42.422 41.8837 42.9672ZM51.6384 40.7746C51.4127 40.6046 51.4365 40.0828 52.2088 38.453C52.5058 37.8082 53.1949 36.7236 54.3771 35.6976C54.5197 36.1197 54.6029 36.5301 54.591 36.9053C54.5732 39.4379 52.7494 40.3818 51.6384 40.7746Z" fill="#CF649A"/>
</svg>
