<svg width="54" height="54" viewBox="0 0 54 54" fill="none" xmlns="http://www.w3.org/2000/svg">
<path d="M12.4959 5.42092L27 3.89795L41.5041 5.42092L52.7344 20.3722L27 50.1017L1.26562 20.3722L12.4959 5.42092Z" fill="#FDB300"/>
<path d="M11.6902 20.3721L27 50.1016L1.26562 20.3721H11.6902Z" fill="#EA6C00"/>
<path d="M42.3098 20.3721L27 50.1016L52.7344 20.3721H42.3098Z" fill="#EA6C00"/>
<path d="M11.6902 20.3721H42.3099L27 50.1016L11.6902 20.3721Z" fill="#FDAD00"/>
<path d="M27 3.89795L12.496 5.42092L11.6902 20.3722L27 3.89795Z" fill="#FDD231"/>
<path d="M27 3.89795L41.5041 5.42092L42.3098 20.3722L27 3.89795Z" fill="#FDD231"/>
<path d="M52.7345 20.3721L41.5042 5.4209L42.3099 20.3721H52.7345Z" fill="#FDAD00"/>
<path d="M27 3.89795L11.6902 20.3722H42.3099L27 3.89795Z" fill="#FEEEB7"/>
<path d="M1.26562 20.3721L12.4959 5.4209L11.6902 20.3721H1.26562Z" fill="#FDAD00"/>
</svg>
