<svg width="24" height="24" viewBox="0 0 24 24" fill="none" xmlns="http://www.w3.org/2000/svg">
<path d="M8.25 3C5.35875 3 3 5.35875 3 8.25C3 9.02325 3.237 9.741 3.53925 10.4062C3.43529 10.9313 3.3803 11.4648 3.375 12C3.375 16.755 7.245 20.625 12 20.625C12.5475 20.625 13.0755 20.5575 13.5938 20.4608C14.259 20.763 14.9767 21 15.75 21C18.6413 21 21 18.6413 21 15.75C21 14.9767 20.763 14.259 20.4608 13.5938C20.5583 13.0755 20.625 12.5475 20.625 12C20.625 7.245 16.755 3.375 12 3.375C11.4525 3.375 10.9245 3.4425 10.4062 3.53925C9.741 3.237 9.02325 3 8.25 3ZM8.25 4.5C8.89725 4.5 9.501 4.6575 10.0312 4.9455C10.1894 5.02963 10.3724 5.05437 10.5472 5.01525C11.0255 4.91935 11.5122 4.87235 12 4.875C15.9435 4.875 19.125 8.0565 19.125 12C19.125 12.501 19.0808 12.9817 18.984 13.4535C18.9453 13.6282 18.9703 13.8109 19.0545 13.9688C19.3418 14.499 19.5 15.1028 19.5 15.75C19.5 17.8298 17.8298 19.5 15.75 19.5C15.1028 19.5 14.499 19.3425 13.9688 19.0545C13.8106 18.9704 13.6276 18.9456 13.4528 18.9847C12.9745 19.0807 12.4878 19.1276 12 19.125C11.0639 19.1264 10.1368 18.943 9.27175 18.5855C8.40668 18.2279 7.62067 17.7031 6.95878 17.0412C6.29689 16.3793 5.77212 15.5933 5.41454 14.7283C5.05697 13.8632 4.87362 12.9361 4.875 12C4.875 11.499 4.91925 11.0183 5.016 10.5465C5.0547 10.3718 5.0297 10.1891 4.9455 10.0312C4.65038 9.4841 4.49721 8.87166 4.5 8.25C4.5 6.17025 6.17025 4.5 8.25 4.5ZM11.883 6.867C10.0282 6.867 8.03925 7.65225 8.03925 9.75C8.03925 10.761 8.39625 11.8297 10.383 12.3285L12.867 12.9375C13.614 13.122 13.8045 13.5442 13.8045 13.9222C13.8045 14.5522 13.1805 15.1642 12.0472 15.1642C9.83175 15.1642 10.116 13.4767 8.9295 13.4767C8.397 13.4767 8.01525 13.8428 8.01525 14.367C8.01525 15.39 9.27225 16.7347 12.0472 16.7347C14.6865 16.7347 15.9847 15.4598 15.9847 13.7573C15.9847 12.6563 15.4777 11.5072 13.4767 11.0625L11.6483 10.6403C10.9538 10.4828 10.1483 10.2862 10.1483 9.633C10.1483 8.97675 10.7048 8.508 11.7188 8.508C13.761 8.508 13.5877 9.91425 14.6017 9.91425C15.1342 9.91425 15.5858 9.60975 15.5858 9.0705C15.5858 7.8105 13.5907 6.867 11.883 6.867Z" fill="#FAFAFA"/>
</svg>
