<svg width="34" height="34" viewBox="0 0 34 34" fill="none" xmlns="http://www.w3.org/2000/svg">
<path d="M31.173 7.80045L32.128 6.84845C32.477 6.51437 32.7557 6.11398 32.9479 5.67074C33.1401 5.2275 33.2419 4.75035 33.2473 4.26726C33.2527 3.78418 33.1615 3.30488 32.9792 2.85748C32.7969 2.41008 32.5271 2.00359 32.1856 1.66184C31.8441 1.32009 31.4378 1.04997 30.9906 0.867306C30.5433 0.684646 30.0641 0.59313 29.581 0.598123C29.0979 0.603116 28.6207 0.704518 28.1773 0.896383C27.7339 1.08825 27.3333 1.36671 26.999 1.71545L26.0439 2.67245C22.7958 0.591648 18.9341 -0.316655 15.099 0.0981024C11.2639 0.51286 7.68568 2.22577 4.95751 4.95289C2.22934 7.68001 0.515039 11.2576 0.0988042 15.0925C-0.31743 18.9275 0.589386 22.7895 2.66893 26.0384L1.71294 27.0004C1.03292 27.6809 0.651074 28.6035 0.651355 29.5655C0.651637 30.5275 1.03405 31.4499 1.71447 32.1299C2.39488 32.81 3.31756 33.1918 4.27953 33.1916C5.2415 33.1913 6.16391 32.8089 6.84392 32.1284L7.79796 31.1744C11.0473 33.2514 14.9085 34.1564 18.7424 33.7395C22.5762 33.3226 26.1526 31.6088 28.8796 28.882C31.6065 26.1551 33.3204 22.5787 33.7375 18.7449C34.1545 14.9111 33.2498 11.0499 31.173 7.80045ZM10.0229 10.0244C11.401 8.64782 13.1596 7.71526 15.0723 7.34688C16.985 6.97849 18.9642 7.19114 20.7549 7.95745L7.95494 20.7574C7.18991 18.9656 6.97823 16.9858 7.3471 15.0727C7.71597 13.1596 8.64854 11.4004 10.025 10.0214M23.8179 23.8144C22.4412 25.1932 20.6827 26.1273 18.7695 26.4961C16.8564 26.865 14.8765 26.6515 13.0859 25.8834L25.886 13.0834C26.651 14.8741 26.8626 16.8527 26.4935 18.7646C26.1244 20.6766 25.1915 22.4343 23.8149 23.8114" fill="#A3C423"/>
</svg>
