<svg width="76" height="46" viewBox="0 0 76 46" fill="none" xmlns="http://www.w3.org/2000/svg">
<path fill-rule="evenodd" clip-rule="evenodd" d="M38 0C27.8691 0 21.5358 5.11111 19 15.3333C22.8017 10.2243 27.2342 8.30791 32.2975 9.58412C35.1921 10.3122 37.2454 12.4273 39.5462 14.7685C43.2572 18.5845 47.5866 22.9969 57 22.9969C67.1309 22.9969 73.4642 17.8858 76 7.66353C72.2025 12.7767 67.77 14.6931 62.7025 13.4127C59.8079 12.6847 57.7546 10.5695 55.4538 8.22841C51.7305 4.3935 47.4196 0 38 0ZM19 22.9969C8.86914 22.9969 2.53581 28.108 0 38.3302C3.80577 33.2212 8.23828 31.3048 13.2975 32.581C16.1921 33.309 18.2454 35.4242 20.5462 37.7716C24.2572 41.5814 28.5866 46 38 46C48.1309 46 54.4642 40.8889 57 30.6667C53.2025 35.7757 48.77 37.6879 43.7025 36.4033C40.8079 35.6753 38.7546 33.5601 36.4538 31.219C32.7428 27.4029 28.4134 22.9843 19 22.9843V22.9969Z" fill="#06B6D4"/>
</svg>
