<svg width="21" height="20" viewBox="0 0 21 20" fill="none" xmlns="http://www.w3.org/2000/svg">
<path fill-rule="evenodd" clip-rule="evenodd" d="M0.25 5C0.25 4.58579 0.585786 4.25 1 4.25H11C11.4142 4.25 11.75 4.58579 11.75 5V15C11.75 15.4142 11.4142 15.75 11 15.75H1C0.585786 15.75 0.25 15.4142 0.25 15V5ZM1.75 5.75V14.25H10.25V5.75H1.75Z" fill="#5E5E65"/>
<path fill-rule="evenodd" clip-rule="evenodd" d="M3.25 8C3.25 7.58579 3.58579 7.25 4 7.25H8C8.41421 7.25 8.75 7.58579 8.75 8C8.75 8.41421 8.41421 8.75 8 8.75H4C3.58579 8.75 3.25 8.41421 3.25 8Z" fill="#5E5E65"/>
<path fill-rule="evenodd" clip-rule="evenodd" d="M6 7.25C6.41421 7.25 6.75 7.58579 6.75 8V12C6.75 12.4142 6.41421 12.75 6 12.75C5.58579 12.75 5.25 12.4142 5.25 12V8C5.25 7.58579 5.58579 7.25 6 7.25Z" fill="#5E5E65"/>
<path fill-rule="evenodd" clip-rule="evenodd" d="M10.25 7C10.25 6.58579 10.5858 6.25 11 6.25H16C16.4142 6.25 16.75 6.58579 16.75 7V14C16.75 15.525 16.1442 16.9875 15.0659 18.0659C13.9876 19.1442 12.525 19.75 11 19.75C8.22036 19.75 5.90931 17.7633 5.36956 15.1518C5.28572 14.7462 5.54659 14.3494 5.95223 14.2655C6.35787 14.1817 6.75467 14.4426 6.83851 14.8482C7.23876 16.7847 8.9537 18.25 11 18.25C12.1272 18.25 13.2082 17.8022 14.0052 17.0052C14.8023 16.2082 15.25 15.1272 15.25 14V7.75H11C10.5858 7.75 10.25 7.41421 10.25 7Z" fill="#5E5E65"/>
<path fill-rule="evenodd" clip-rule="evenodd" d="M15.25 7C15.25 6.58579 15.5858 6.25 16 6.25H20C20.4142 6.25 20.75 6.58579 20.75 7V12C20.75 13.2598 20.2496 14.468 19.3588 15.3588C18.468 16.2496 17.2598 16.75 16 16.75C15.5858 16.75 15.25 16.4142 15.25 16C15.25 15.5858 15.5858 15.25 16 15.25C16.862 15.25 17.6886 14.9076 18.2981 14.2981C18.9076 13.6886 19.25 12.862 19.25 12V7.75H16C15.5858 7.75 15.25 7.41421 15.25 7Z" fill="#5E5E65"/>
<path fill-rule="evenodd" clip-rule="evenodd" d="M10.0013 0.827318C10.7207 0.374254 11.5727 0.1791 12.4176 0.273859C13.2625 0.368619 14.0501 0.747668 14.6513 1.34884C15.2525 1.95002 15.6315 2.73764 15.7263 3.58253C15.821 4.42743 15.6259 5.27944 15.1728 5.99886C14.7197 6.71827 14.0357 7.26238 13.2328 7.54195C12.4298 7.82152 11.5558 7.81996 10.7539 7.53752C10.3632 7.39991 10.158 6.97165 10.2956 6.58096C10.4332 6.19027 10.8615 5.9851 11.2522 6.12271C11.7333 6.29217 12.2578 6.29311 12.7395 6.12537C13.2213 5.95763 13.6317 5.63116 13.9035 5.19951C14.1754 4.76786 14.2925 4.25665 14.2356 3.74972C14.1788 3.24278 13.9513 2.77021 13.5906 2.4095C13.2299 2.0488 12.7573 1.82137 12.2504 1.76451C11.7435 1.70766 11.2323 1.82475 10.8006 2.09659C10.369 2.36843 10.0425 2.77887 9.87476 3.26062C9.70702 3.74237 9.70796 4.26682 9.87742 4.74796C10.015 5.13865 9.80986 5.56691 9.41917 5.70452C9.02848 5.84212 8.60021 5.63696 8.46261 5.24627C8.18017 4.44436 8.17861 3.57028 8.45818 2.76737C8.73775 1.96446 9.28186 1.28038 10.0013 0.827318Z" fill="#5E5E65"/>
<path fill-rule="evenodd" clip-rule="evenodd" d="M14.1012 1.56594C14.6322 1.31273 15.222 1.20841 15.8077 1.26411C16.3933 1.31981 16.9529 1.53344 17.4267 1.88221C17.9005 2.23098 18.2707 2.70182 18.4979 3.24449C18.725 3.78717 18.8007 4.38134 18.7167 4.96362C18.6326 5.5459 18.3922 6.09446 18.0208 6.55078C17.6495 7.0071 17.1613 7.35408 16.6083 7.5547C16.0552 7.75533 15.4581 7.80207 14.8805 7.68994C14.303 7.57782 13.7668 7.31103 13.329 6.91804C13.0207 6.64134 12.9951 6.16716 13.2718 5.85892C13.5485 5.55068 14.0227 5.5251 14.331 5.8018C14.5667 6.01341 14.8555 6.15706 15.1664 6.21744C15.4774 6.27781 15.7989 6.25264 16.0967 6.14462C16.3945 6.03659 16.6574 5.84976 16.8574 5.60404C17.0573 5.35833 17.1868 5.06295 17.232 4.74941C17.2773 4.43588 17.2365 4.11594 17.1142 3.82373C16.9919 3.53152 16.7925 3.278 16.5374 3.0902C16.2823 2.9024 15.981 2.78737 15.6656 2.75737C15.3503 2.72738 15.0327 2.78355 14.7468 2.9199C14.3729 3.09817 13.9253 2.9396 13.747 2.56572C13.5687 2.19183 13.7273 1.74422 14.1012 1.56594Z" fill="#5E5E65"/>
</svg>
