<svg width="54" height="54" viewBox="0 0 54 54" fill="none" xmlns="http://www.w3.org/2000/svg">
<g clip-path="url(#clip0_845_46)">
<path d="M48.7266 0H5.27344C2.361 0 0 2.361 0 5.27344V48.7266C0 51.639 2.361 54 5.27344 54H48.7266C51.639 54 54 51.639 54 48.7266V5.27344C54 2.361 51.639 0 48.7266 0Z" fill="url(#paint0_linear_845_46)"/>
<path d="M44.4488 7.02002H33.0413C31.6433 7.02002 30.51 8.1533 30.51 9.55127V28.1138C30.51 29.5117 31.6433 30.645 33.0413 30.645H44.4488C45.8467 30.645 46.98 29.5117 46.98 28.1138V9.55127C46.98 8.1533 45.8467 7.02002 44.4488 7.02002Z" fill="white"/>
<path d="M20.9588 7.02002H9.55127C8.1533 7.02002 7.02002 8.1533 7.02002 9.55127V41.6138C7.02002 43.0117 8.1533 44.145 9.55127 44.145H20.9588C22.3567 44.145 23.49 43.0117 23.49 41.6138V9.55127C23.49 8.1533 22.3567 7.02002 20.9588 7.02002Z" fill="white"/>
</g>
<defs>
<linearGradient id="paint0_linear_845_46" x1="2700" y1="0" x2="2700" y2="5400" gradientUnits="userSpaceOnUse">
<stop stop-color="#0091E6"/>
<stop offset="1" stop-color="#0079BF"/>
</linearGradient>
<clipPath id="clip0_845_46">
<rect width="54" height="54" fill="white"/>
</clipPath>
</defs>
</svg>
