<svg width="80" height="80" viewBox="0 0 80 80" fill="none" xmlns="http://www.w3.org/2000/svg">
<path d="M72 0C76.4183 0 80 3.58172 80 8V72C80 76.4183 76.4183 80 72 80H8C3.58172 80 0 76.4183 0 72V8C0 3.58172 3.58172 0 8 0H72Z" fill="#4353FF"/>
<path d="M54.1804 33.5204C54.1804 33.5204 50.1204 46.2404 49.8204 47.3204C49.7004 46.2604 46.7404 23.4004 46.7404 23.4004C39.8204 23.4004 36.1404 28.3204 34.1804 33.5204C34.1804 33.5204 29.2404 46.2804 28.8404 47.3404C28.8204 46.3404 28.0804 33.6404 28.0804 33.6404C27.6604 27.2604 21.8404 23.4004 17.1204 23.4004L22.8004 58.0204C30.0404 58.0004 33.9404 53.1004 35.9804 47.8804C35.9804 47.8804 40.3204 36.6204 40.5004 36.1204C40.5404 36.6004 43.6204 58.0204 43.6204 58.0204C50.8804 58.0204 54.8004 53.4404 56.9004 48.4204L67.0804 23.4004C59.9004 23.4004 56.1204 28.3004 54.1804 33.5204Z" fill="white"/>
</svg>
