<svg width="21" height="15" viewBox="0 0 21 15" fill="none" xmlns="http://www.w3.org/2000/svg">
<path fill-rule="evenodd" clip-rule="evenodd" d="M8.53912 1.46514C9.39572 0.696189 10.5214 0.25 12 0.25C12.3599 0.25 12.669 0.505609 12.7366 0.859069L12.9646 2.05329C13.1017 2.77222 13.285 3.73505 13.4697 4.71046C13.5631 5.20407 13.658 5.706 13.7478 6.18338C13.8722 5.85511 13.9886 5.54872 14.0821 5.30294L14.299 4.73329L14.2999 4.7311C15.088 2.67902 16.7995 0.25 20 0.25C20.2452 0.25 20.475 0.369877 20.6152 0.571024C20.7555 0.772171 20.7885 1.02918 20.7038 1.25928L17.2038 10.7593C17.1992 10.7718 17.1942 10.7841 17.189 10.7963C16.2748 12.9219 14.0827 14.75 11 14.75C10.6221 14.75 10.3032 14.4688 10.2559 14.0939L10.1015 12.8691C10.0087 12.1331 9.88493 11.1499 9.76073 10.161C9.72829 9.9027 9.69568 9.64298 9.6635 9.38643C9.58055 9.63448 9.50341 9.86506 9.43718 10.063L9.21145 10.7374C9.20673 10.7515 9.20132 10.7662 9.19577 10.78C8.30089 13.0034 6.05047 14.7356 3.00356 14.75C2.6321 14.7518 2.31532 14.4813 2.25875 14.1142L0.258753 1.13421C0.225424 0.91791 0.288239 0.697839 0.430725 0.531718C0.57321 0.365596 0.781148 0.27 1.00001 0.27C3.16708 0.27 5.56064 2.16488 5.74714 4.93163L5.82125 5.56447C5.84972 5.80852 5.88413 6.10455 5.9209 6.42311C6.14062 5.87472 6.35241 5.34647 6.51347 4.94485L6.80126 4.2274C7.18554 3.21448 7.70622 2.21281 8.53912 1.46514ZM8.19604 4.77935L7.90569 5.50318C7.73048 5.94008 7.49523 6.52683 7.25509 7.12628C6.77304 8.32959 6.27596 9.57235 6.19975 9.76993C6.07152 10.1023 5.72713 10.2987 5.37576 10.2396C5.0244 10.1806 4.76305 9.88254 4.75047 9.52648C4.75048 9.52664 4.75048 9.52672 4.75047 9.52648C4.75042 9.52535 4.75012 9.51938 4.74926 9.50708C4.74829 9.49327 4.74687 9.4751 4.74493 9.4522C4.74104 9.40635 4.7355 9.34675 4.72838 9.27432C4.71417 9.12967 4.69438 8.94086 4.67074 8.72226C4.62351 8.28543 4.56162 7.73622 4.49999 7.1972C4.43838 6.65846 4.37717 6.13106 4.33135 5.73828L4.25525 5.08852C4.25366 5.07508 4.25236 5.06086 4.2515 5.04735C4.15307 3.49149 3.05188 2.34381 1.89971 1.93411L3.63786 13.2147C5.72785 12.9912 7.18607 11.735 7.79618 10.2399L8.0147 9.58701C8.15062 9.18082 8.33246 8.63719 8.51616 8.08734C8.69988 7.53743 8.88537 6.98156 9.02865 6.55079C9.10031 6.33535 9.16126 6.15163 9.2061 6.01575C9.22855 5.94774 9.24676 5.89231 9.26018 5.85113L9.27616 5.80175C9.28058 5.78794 9.28194 5.78348 9.28164 5.78449C9.38563 5.43783 9.72235 5.21489 10.0821 5.25451C10.4418 5.29412 10.722 5.58499 10.7481 5.94597C10.748 5.94556 10.7486 5.9507 10.7499 5.96165C10.7545 6.00026 10.7675 6.11104 10.7912 6.30446C10.8193 6.53469 10.8588 6.85427 10.906 7.23334C11.0003 7.99133 11.1249 8.98536 11.249 9.97403C11.3732 10.9626 11.497 11.9457 11.5897 12.6815L11.6569 13.2143C13.7279 12.9853 15.1664 11.6862 15.8034 10.2213L18.8676 1.90422C17.2784 2.35958 16.2794 3.76105 15.7004 5.26819C15.7003 5.26842 15.7005 5.26795 15.7004 5.26819L15.6997 5.26996L15.4841 5.83625C15.3532 6.18019 15.1775 6.64276 14.998 7.11751C14.632 8.08543 14.2691 9.0547 14.2154 9.22515C14.1091 9.56287 13.7812 9.78026 13.4287 9.7466C13.0763 9.71295 12.7954 9.43741 12.7549 9.08569C12.755 9.08637 12.755 9.08673 12.755 9.08674C12.755 9.08674 12.754 9.07868 12.7507 9.0582C12.7473 9.0363 12.7425 9.00694 12.7362 8.96973C12.7235 8.89547 12.706 8.79596 12.6841 8.67387C12.6404 8.43002 12.5801 8.10209 12.5088 7.71821C12.3663 6.95077 12.1804 5.9643 11.9959 4.98954C11.8113 4.01495 11.6282 3.05278 11.4912 2.33421L11.3864 1.78508C10.5711 1.88309 9.98917 2.17917 9.54114 2.58136C8.9662 3.09747 8.55086 3.84292 8.20139 4.76564L8.19604 4.77935Z" fill="#5E5E65"/>
</svg>
